M48
INCH,TZ
T1C0.013
T2C0.016
T3C0.031
T4C0.035
T5C0.039
T6C0.039
T7C0.040
T8C0.043
T9C0.126
%
G90
G05
T1
X3.3Y-3.0625
X3.3Y-3.1725
X3.315Y-3.795
X3.585Y-3.81
X3.645Y-4.095
X3.65Y-3.38
X3.888Y-3.382
X4.Y-3.455
X4.12Y-3.25
X4.18Y-3.355
X4.425Y-2.325
X4.425Y-2.6
T2
X5.57Y-3.26
T3
X2.79Y-2.24
X2.79Y-3.19
X2.9869Y-2.24
X2.9869Y-3.19
X3.303Y-5.192
X3.4999Y-5.192
X3.782Y-5.192
X3.79Y-2.64
X3.79Y-3.64
X3.9789Y-5.192
X3.9869Y-2.64
X3.9869Y-3.64
X5.57Y-3.375
X5.57Y-3.6703
T4
X2.63Y-5.29
X3.0237Y-5.29
X4.105Y-4.3963
X4.105Y-4.79
X5.22Y-2.5463
X5.22Y-2.94
T5
X2.73Y-4.23
X2.73Y-4.83
X2.8Y-2.47
X2.8Y-2.97
X2.81Y-3.41
X2.81Y-3.91
X2.83Y-4.23
X2.83Y-4.83
X2.9Y-2.47
X2.9Y-2.97
X2.91Y-3.41
X2.91Y-3.91
X2.93Y-4.23
X2.93Y-4.83
X3.Y-2.47
X3.Y-2.97
X3.01Y-3.41
X3.01Y-3.91
X3.1Y-2.47
X3.1Y-2.97
X3.11Y-3.41
X3.11Y-3.91
X3.2Y-2.47
X3.2Y-2.97
X3.21Y-3.41
X3.21Y-3.91
X3.3Y-2.47
X3.3Y-2.97
X3.31Y-3.41
X3.31Y-3.91
X3.4Y-2.47
X3.4Y-2.97
X3.41Y-3.41
X3.41Y-3.91
X3.5Y-2.47
X3.5Y-2.97
X3.51Y-3.41
X3.51Y-3.91
X3.63Y-4.23
X3.63Y-4.83
X3.73Y-4.23
X3.73Y-4.83
X3.83Y-4.23
X3.83Y-4.83
X4.285Y-2.35
X4.285Y-2.45
X4.285Y-2.55
X4.285Y-2.65
X4.285Y-2.75
X4.285Y-2.85
X4.285Y-2.95
X4.285Y-3.05
X4.285Y-3.15
X4.285Y-3.25
X4.285Y-3.35
X4.285Y-3.45
X4.285Y-3.55
X4.285Y-3.65
X4.285Y-3.75
X4.285Y-3.85
X4.285Y-3.95
X4.885Y-2.35
X4.885Y-2.45
X4.885Y-2.55
X4.885Y-2.65
X4.885Y-2.75
X4.885Y-2.85
X4.885Y-2.95
X4.885Y-3.05
X4.885Y-3.15
X4.885Y-3.25
X4.885Y-3.35
X4.885Y-3.45
X4.885Y-3.55
X4.885Y-3.65
X4.885Y-3.75
X4.885Y-3.85
X4.885Y-3.95
T6
X5.137Y-3.6468
X5.137Y-3.9468
X5.3163Y-3.6476
X5.3163Y-3.9476
T7
X5.545Y-2.48
X5.545Y-2.58
X5.545Y-2.68
X5.545Y-2.78
X5.545Y-2.88
X5.545Y-2.98
T8
X2.38Y-4.86
X2.38Y-4.96
X2.45Y-2.475
X2.45Y-2.575
X2.45Y-2.875
X2.45Y-2.975
X2.45Y-3.425
X2.45Y-3.525
X2.45Y-3.8
X2.45Y-3.9
T9
X2.3622Y-2.2638
X2.3622Y-5.2165
X5.5118Y-2.2638
X5.5118Y-5.2165
T0
M30
