G04 #@! TF.FileFunction,Soldermask,Top*
%FSLAX46Y46*%
G04 Gerber Fmt 4.6, Leading zero omitted, Abs format (unit mm)*
G04 Created by KiCad (PCBNEW 4.0.6-e0-6349~53~ubuntu16.04.1) date Sun Mar 12 20:16:21 2017*
%MOMM*%
%LPD*%
G01*
G04 APERTURE LIST*
%ADD10C,0.100000*%
%ADD11C,0.150000*%
%ADD12R,1.800000X1.800000*%
%ADD13C,1.800000*%
%ADD14R,1.700000X1.700000*%
%ADD15C,1.700000*%
%ADD16O,2.398980X2.398980*%
%ADD17R,2.398980X2.398980*%
%ADD18C,2.398980*%
%ADD19R,2.100000X2.400000*%
%ADD20O,2.100000X2.400000*%
%ADD21R,2.400000X2.100000*%
%ADD22O,2.400000X2.100000*%
%ADD23R,2.432000X2.127200*%
%ADD24O,2.432000X2.127200*%
%ADD25C,5.900000*%
G04 APERTURE END LIST*
D10*
D11*
X146050000Y-53340000D02*
X54610000Y-53340000D01*
X146050000Y-139700000D02*
X146050000Y-53340000D01*
X54610000Y-139700000D02*
X146050000Y-139700000D01*
X54610000Y-53340000D02*
X54610000Y-139700000D01*
D12*
X66802000Y-134366000D03*
D13*
X76802000Y-134366000D03*
D14*
X96266000Y-67056000D03*
D15*
X101266000Y-67056000D03*
D14*
X96266000Y-92456000D03*
D15*
X101266000Y-92456000D03*
D14*
X70866000Y-56896000D03*
D15*
X75866000Y-56896000D03*
D14*
X70866000Y-81026000D03*
D15*
X75866000Y-81026000D03*
D12*
X104267000Y-121666000D03*
D13*
X104267000Y-111666000D03*
D14*
X83896200Y-131876800D03*
D15*
X88896200Y-131876800D03*
D14*
X96062800Y-131876800D03*
D15*
X101062800Y-131876800D03*
D14*
X141478000Y-85725000D03*
D15*
X141478000Y-93225000D03*
D12*
X132588000Y-74676000D03*
D13*
X132588000Y-64676000D03*
D16*
X60452000Y-125984000D03*
D17*
X60452000Y-123444000D03*
D16*
X62230000Y-65405000D03*
D17*
X62230000Y-62865000D03*
D16*
X62230000Y-75565000D03*
D17*
X62230000Y-73025000D03*
D16*
X62230000Y-89535000D03*
D17*
X62230000Y-86995000D03*
D16*
X62230000Y-99060000D03*
D17*
X62230000Y-96520000D03*
D18*
X130479800Y-100248720D03*
X130479800Y-92628720D03*
X135034020Y-92649040D03*
X135034020Y-100269040D03*
D19*
X71120000Y-75438000D03*
D20*
X73660000Y-75438000D03*
X76200000Y-75438000D03*
X78740000Y-75438000D03*
X81280000Y-75438000D03*
X83820000Y-75438000D03*
X86360000Y-75438000D03*
X88900000Y-75438000D03*
X88900000Y-62738000D03*
X86360000Y-62738000D03*
X83820000Y-62738000D03*
X81280000Y-62738000D03*
X78740000Y-62738000D03*
X76200000Y-62738000D03*
X73660000Y-62738000D03*
X71120000Y-62738000D03*
D19*
X71374000Y-99314000D03*
D20*
X73914000Y-99314000D03*
X76454000Y-99314000D03*
X78994000Y-99314000D03*
X81534000Y-99314000D03*
X84074000Y-99314000D03*
X86614000Y-99314000D03*
X89154000Y-99314000D03*
X89154000Y-86614000D03*
X86614000Y-86614000D03*
X84074000Y-86614000D03*
X81534000Y-86614000D03*
X78994000Y-86614000D03*
X76454000Y-86614000D03*
X73914000Y-86614000D03*
X71374000Y-86614000D03*
X74422000Y-122682000D03*
X71882000Y-122682000D03*
D19*
X69342000Y-122682000D03*
D20*
X69342000Y-107442000D03*
X71882000Y-107442000D03*
X74422000Y-107442000D03*
X92202000Y-107442000D03*
X94742000Y-107442000D03*
X97282000Y-107442000D03*
X92202000Y-122682000D03*
X94742000Y-122682000D03*
X97282000Y-122682000D03*
D21*
X108839000Y-59690000D03*
D22*
X108839000Y-62230000D03*
X108839000Y-64770000D03*
X108839000Y-67310000D03*
X108839000Y-69850000D03*
X108839000Y-72390000D03*
X108839000Y-74930000D03*
X108839000Y-77470000D03*
X108839000Y-80010000D03*
X108839000Y-82550000D03*
X108839000Y-85090000D03*
X108839000Y-87630000D03*
X108839000Y-90170000D03*
X108839000Y-92710000D03*
X108839000Y-95250000D03*
X108839000Y-97790000D03*
X108839000Y-100330000D03*
X124079000Y-100330000D03*
X124079000Y-97790000D03*
X124079000Y-95250000D03*
X124079000Y-92710000D03*
X124079000Y-90170000D03*
X124079000Y-87630000D03*
X124079000Y-85090000D03*
X124079000Y-82550000D03*
X124079000Y-80010000D03*
X124079000Y-77470000D03*
X124079000Y-74930000D03*
X124079000Y-72390000D03*
X124079000Y-69850000D03*
X124079000Y-67310000D03*
X124079000Y-64770000D03*
X124079000Y-62230000D03*
X124079000Y-59690000D03*
D23*
X140843000Y-75692000D03*
D24*
X140843000Y-73152000D03*
X140843000Y-70612000D03*
X140843000Y-68072000D03*
X140843000Y-65532000D03*
X140843000Y-62992000D03*
D25*
X60000000Y-57500000D03*
X140000000Y-57500000D03*
X60000000Y-132500000D03*
X140000000Y-132500000D03*
M02*
