G04 #@! TF.FileFunction,Copper,L1,Top,Signal*
%FSLAX46Y46*%
G04 Gerber Fmt 4.6, Leading zero omitted, Abs format (unit mm)*
G04 Created by KiCad (PCBNEW 4.0.6-e0-6349~53~ubuntu16.04.1) date Sun Mar 12 20:16:21 2017*
%MOMM*%
%LPD*%
G01*
G04 APERTURE LIST*
%ADD10C,0.100000*%
%ADD11C,0.150000*%
%ADD12R,1.400000X1.400000*%
%ADD13C,1.400000*%
%ADD14R,1.300000X1.300000*%
%ADD15C,1.300000*%
%ADD16O,1.998980X1.998980*%
%ADD17R,1.998980X1.998980*%
%ADD18C,1.998980*%
%ADD19R,1.700000X2.000000*%
%ADD20O,1.700000X2.000000*%
%ADD21R,2.000000X1.700000*%
%ADD22O,2.000000X1.700000*%
%ADD23R,2.032000X1.727200*%
%ADD24O,2.032000X1.727200*%
%ADD25C,5.500000*%
%ADD26C,0.600000*%
%ADD27C,0.800000*%
%ADD28C,0.250000*%
%ADD29C,0.400000*%
%ADD30C,0.254000*%
G04 APERTURE END LIST*
D10*
D11*
X146050000Y-53340000D02*
X54610000Y-53340000D01*
X146050000Y-139700000D02*
X146050000Y-53340000D01*
X54610000Y-139700000D02*
X146050000Y-139700000D01*
X54610000Y-53340000D02*
X54610000Y-139700000D01*
D12*
X66802000Y-134366000D03*
D13*
X76802000Y-134366000D03*
D14*
X96266000Y-67056000D03*
D15*
X101266000Y-67056000D03*
D14*
X96266000Y-92456000D03*
D15*
X101266000Y-92456000D03*
D14*
X70866000Y-56896000D03*
D15*
X75866000Y-56896000D03*
D14*
X70866000Y-81026000D03*
D15*
X75866000Y-81026000D03*
D12*
X104267000Y-121666000D03*
D13*
X104267000Y-111666000D03*
D14*
X83896200Y-131876800D03*
D15*
X88896200Y-131876800D03*
D14*
X96062800Y-131876800D03*
D15*
X101062800Y-131876800D03*
D14*
X141478000Y-85725000D03*
D15*
X141478000Y-93225000D03*
D12*
X132588000Y-74676000D03*
D13*
X132588000Y-64676000D03*
D16*
X60452000Y-125984000D03*
D17*
X60452000Y-123444000D03*
D16*
X62230000Y-65405000D03*
D17*
X62230000Y-62865000D03*
D16*
X62230000Y-75565000D03*
D17*
X62230000Y-73025000D03*
D16*
X62230000Y-89535000D03*
D17*
X62230000Y-86995000D03*
D16*
X62230000Y-99060000D03*
D17*
X62230000Y-96520000D03*
D18*
X130479800Y-100248720D03*
X130479800Y-92628720D03*
X135034020Y-92649040D03*
X135034020Y-100269040D03*
D19*
X71120000Y-75438000D03*
D20*
X73660000Y-75438000D03*
X76200000Y-75438000D03*
X78740000Y-75438000D03*
X81280000Y-75438000D03*
X83820000Y-75438000D03*
X86360000Y-75438000D03*
X88900000Y-75438000D03*
X88900000Y-62738000D03*
X86360000Y-62738000D03*
X83820000Y-62738000D03*
X81280000Y-62738000D03*
X78740000Y-62738000D03*
X76200000Y-62738000D03*
X73660000Y-62738000D03*
X71120000Y-62738000D03*
D19*
X71374000Y-99314000D03*
D20*
X73914000Y-99314000D03*
X76454000Y-99314000D03*
X78994000Y-99314000D03*
X81534000Y-99314000D03*
X84074000Y-99314000D03*
X86614000Y-99314000D03*
X89154000Y-99314000D03*
X89154000Y-86614000D03*
X86614000Y-86614000D03*
X84074000Y-86614000D03*
X81534000Y-86614000D03*
X78994000Y-86614000D03*
X76454000Y-86614000D03*
X73914000Y-86614000D03*
X71374000Y-86614000D03*
X74422000Y-122682000D03*
X71882000Y-122682000D03*
D19*
X69342000Y-122682000D03*
D20*
X69342000Y-107442000D03*
X71882000Y-107442000D03*
X74422000Y-107442000D03*
X92202000Y-107442000D03*
X94742000Y-107442000D03*
X97282000Y-107442000D03*
X92202000Y-122682000D03*
X94742000Y-122682000D03*
X97282000Y-122682000D03*
D21*
X108839000Y-59690000D03*
D22*
X108839000Y-62230000D03*
X108839000Y-64770000D03*
X108839000Y-67310000D03*
X108839000Y-69850000D03*
X108839000Y-72390000D03*
X108839000Y-74930000D03*
X108839000Y-77470000D03*
X108839000Y-80010000D03*
X108839000Y-82550000D03*
X108839000Y-85090000D03*
X108839000Y-87630000D03*
X108839000Y-90170000D03*
X108839000Y-92710000D03*
X108839000Y-95250000D03*
X108839000Y-97790000D03*
X108839000Y-100330000D03*
X124079000Y-100330000D03*
X124079000Y-97790000D03*
X124079000Y-95250000D03*
X124079000Y-92710000D03*
X124079000Y-90170000D03*
X124079000Y-87630000D03*
X124079000Y-85090000D03*
X124079000Y-82550000D03*
X124079000Y-80010000D03*
X124079000Y-77470000D03*
X124079000Y-74930000D03*
X124079000Y-72390000D03*
X124079000Y-69850000D03*
X124079000Y-67310000D03*
X124079000Y-64770000D03*
X124079000Y-62230000D03*
X124079000Y-59690000D03*
D23*
X140843000Y-75692000D03*
D24*
X140843000Y-73152000D03*
X140843000Y-70612000D03*
X140843000Y-68072000D03*
X140843000Y-65532000D03*
X140843000Y-62992000D03*
D25*
X60000000Y-57500000D03*
X140000000Y-57500000D03*
X60000000Y-132500000D03*
X140000000Y-132500000D03*
D26*
X141478000Y-82804000D03*
X83820000Y-80581500D03*
X83820000Y-77787500D03*
X112395000Y-66040000D03*
X112395000Y-59055000D03*
X84201000Y-96393000D03*
X91059000Y-96774000D03*
X104648000Y-82550000D03*
X98755200Y-85902800D03*
X101600000Y-87757000D03*
X106172000Y-85217000D03*
X92583000Y-104013000D03*
X92710000Y-85852000D03*
D27*
X62230000Y-65405000D02*
X64325500Y-65405000D01*
X78740000Y-64960500D02*
X78740000Y-62738000D01*
X76200000Y-67500500D02*
X78740000Y-64960500D01*
X66421000Y-67500500D02*
X76200000Y-67500500D01*
X64325500Y-65405000D02*
X66421000Y-67500500D01*
X62230000Y-62865000D02*
X64706500Y-62865000D01*
X76200000Y-64198500D02*
X76200000Y-62738000D01*
X74739500Y-65659000D02*
X76200000Y-64198500D01*
X67500500Y-65659000D02*
X74739500Y-65659000D01*
X64706500Y-62865000D02*
X67500500Y-65659000D01*
X62230000Y-75565000D02*
X66421000Y-75565000D01*
X83820000Y-66802000D02*
X83820000Y-62738000D01*
X78486000Y-72136000D02*
X83820000Y-66802000D01*
X69850000Y-72136000D02*
X78486000Y-72136000D01*
X66421000Y-75565000D02*
X69850000Y-72136000D01*
D28*
X83820000Y-62888000D02*
X83820000Y-62738000D01*
D27*
X62230000Y-73025000D02*
X65532000Y-73025000D01*
X81280000Y-65278000D02*
X81280000Y-62738000D01*
X77089000Y-69469000D02*
X81280000Y-65278000D01*
X69088000Y-69469000D02*
X77089000Y-69469000D01*
X65532000Y-73025000D02*
X69088000Y-69469000D01*
X62230000Y-89535000D02*
X65659000Y-89535000D01*
X74168000Y-92202000D02*
X78994000Y-87376000D01*
X68326000Y-92202000D02*
X74168000Y-92202000D01*
X65659000Y-89535000D02*
X68326000Y-92202000D01*
X78994000Y-87376000D02*
X78994000Y-86614000D01*
X62230000Y-86995000D02*
X66040000Y-86995000D01*
X66040000Y-86995000D02*
X69215000Y-90170000D01*
X69215000Y-90170000D02*
X73660000Y-90170000D01*
X73660000Y-90170000D02*
X76454000Y-87376000D01*
D28*
X76454000Y-87376000D02*
X76454000Y-86614000D01*
D27*
X62230000Y-99060000D02*
X67437000Y-99060000D01*
X84074000Y-89916000D02*
X84074000Y-86614000D01*
X77216000Y-96774000D02*
X84074000Y-89916000D01*
X69723000Y-96774000D02*
X77216000Y-96774000D01*
X67437000Y-99060000D02*
X69723000Y-96774000D01*
X62230000Y-96520000D02*
X66675000Y-96520000D01*
X81407000Y-88773000D02*
X81407000Y-86741000D01*
X75565000Y-94615000D02*
X81407000Y-88773000D01*
X68580000Y-94615000D02*
X75565000Y-94615000D01*
X66675000Y-96520000D02*
X68580000Y-94615000D01*
X81407000Y-86741000D02*
X81534000Y-86614000D01*
D29*
X130479800Y-92628720D02*
X135013700Y-92628720D01*
D28*
X135013700Y-92628720D02*
X135034020Y-92649040D01*
D29*
X124079000Y-92710000D02*
X130398520Y-92710000D01*
D28*
X130398520Y-92710000D02*
X130479800Y-92628720D01*
D29*
X108839000Y-87630000D02*
X107315000Y-87630000D01*
X81280000Y-77470000D02*
X81280000Y-75438000D01*
X82550000Y-78740000D02*
X81280000Y-77470000D01*
X98425000Y-78740000D02*
X82550000Y-78740000D01*
X107315000Y-87630000D02*
X98425000Y-78740000D01*
X108839000Y-90170000D02*
X107061000Y-90170000D01*
X107061000Y-90170000D02*
X97599500Y-80708500D01*
X97599500Y-80708500D02*
X83947000Y-80708500D01*
X83947000Y-80708500D02*
X83820000Y-80581500D01*
X83820000Y-77787500D02*
X83820000Y-75438000D01*
X108839000Y-74930000D02*
X90805000Y-74930000D01*
X90805000Y-74930000D02*
X88900000Y-73025000D01*
X88900000Y-73025000D02*
X86995000Y-73025000D01*
X86995000Y-73025000D02*
X86360000Y-73660000D01*
X86360000Y-73660000D02*
X86360000Y-75438000D01*
X108839000Y-77470000D02*
X91440000Y-77470000D01*
X91440000Y-77470000D02*
X89408000Y-75438000D01*
D28*
X89408000Y-75438000D02*
X88900000Y-75438000D01*
D29*
X108839000Y-97790000D02*
X109855000Y-97790000D01*
X109855000Y-97790000D02*
X112395000Y-95250000D01*
X112395000Y-95250000D02*
X112395000Y-66040000D01*
X112395000Y-59055000D02*
X110490000Y-57150000D01*
X110490000Y-57150000D02*
X88900000Y-57150000D01*
X88900000Y-57150000D02*
X86360000Y-59690000D01*
X86360000Y-59690000D02*
X86360000Y-62738000D01*
X108839000Y-92710000D02*
X106680000Y-92710000D01*
X81534000Y-97409000D02*
X81534000Y-99314000D01*
X82550000Y-96393000D02*
X81534000Y-97409000D01*
X84201000Y-96393000D02*
X82550000Y-96393000D01*
X102616000Y-96774000D02*
X91059000Y-96774000D01*
X106680000Y-92710000D02*
X102616000Y-96774000D01*
D28*
X108839000Y-92710000D02*
X108204000Y-92710000D01*
D29*
X108839000Y-95250000D02*
X106680000Y-95250000D01*
X84074000Y-101346000D02*
X84074000Y-99314000D01*
X85217000Y-102489000D02*
X84074000Y-101346000D01*
X99441000Y-102489000D02*
X85217000Y-102489000D01*
X106680000Y-95250000D02*
X99441000Y-102489000D01*
X86614000Y-99314000D02*
X86614000Y-95351600D01*
X104648000Y-82550000D02*
X108839000Y-82550000D01*
X96062800Y-85902800D02*
X98755200Y-85902800D01*
X86614000Y-95351600D02*
X96062800Y-85902800D01*
X89154000Y-99314000D02*
X89154000Y-95123000D01*
X89154000Y-95123000D02*
X96266000Y-88011000D01*
X96266000Y-88011000D02*
X101346000Y-88011000D01*
X101346000Y-88011000D02*
X101600000Y-87757000D01*
X106172000Y-85217000D02*
X106299000Y-85090000D01*
X106299000Y-85090000D02*
X108839000Y-85090000D01*
X108839000Y-100330000D02*
X106807000Y-100330000D01*
X106807000Y-100330000D02*
X103124000Y-104013000D01*
X103124000Y-104013000D02*
X92583000Y-104013000D01*
X92710000Y-85852000D02*
X90297000Y-83439000D01*
X90297000Y-83439000D02*
X88138000Y-83439000D01*
X88138000Y-83439000D02*
X86614000Y-84963000D01*
X86614000Y-84963000D02*
X86614000Y-86614000D01*
D28*
X140843000Y-65532000D02*
X140716000Y-65532000D01*
D29*
X140716000Y-65532000D02*
X131953000Y-56769000D01*
X116840000Y-56769000D02*
X108839000Y-64770000D01*
X131953000Y-56769000D02*
X116840000Y-56769000D01*
D28*
X140843000Y-68072000D02*
X140716000Y-68072000D01*
D29*
X140716000Y-68072000D02*
X130302000Y-57658000D01*
X118491000Y-57658000D02*
X108839000Y-67310000D01*
X130302000Y-57658000D02*
X118491000Y-57658000D01*
D30*
G36*
X145340000Y-138990000D02*
X55320000Y-138990000D01*
X55320000Y-133170364D01*
X56614414Y-133170364D01*
X57128663Y-134414943D01*
X58080048Y-135367990D01*
X59323728Y-135884411D01*
X60670364Y-135885586D01*
X61914943Y-135371337D01*
X62867990Y-134419952D01*
X63181058Y-133666000D01*
X65454560Y-133666000D01*
X65454560Y-135066000D01*
X65498838Y-135301317D01*
X65637910Y-135517441D01*
X65850110Y-135662431D01*
X66102000Y-135713440D01*
X67502000Y-135713440D01*
X67737317Y-135669162D01*
X67953441Y-135530090D01*
X68098431Y-135317890D01*
X68101795Y-135301275D01*
X76046331Y-135301275D01*
X76108169Y-135537042D01*
X76609122Y-135713419D01*
X77139440Y-135684664D01*
X77495831Y-135537042D01*
X77557669Y-135301275D01*
X76802000Y-134545605D01*
X76046331Y-135301275D01*
X68101795Y-135301275D01*
X68149440Y-135066000D01*
X68149440Y-134173122D01*
X75454581Y-134173122D01*
X75483336Y-134703440D01*
X75630958Y-135059831D01*
X75866725Y-135121669D01*
X76622395Y-134366000D01*
X76981605Y-134366000D01*
X77737275Y-135121669D01*
X77973042Y-135059831D01*
X78149419Y-134558878D01*
X78120664Y-134028560D01*
X77973042Y-133672169D01*
X77737275Y-133610331D01*
X76981605Y-134366000D01*
X76622395Y-134366000D01*
X75866725Y-133610331D01*
X75630958Y-133672169D01*
X75454581Y-134173122D01*
X68149440Y-134173122D01*
X68149440Y-133666000D01*
X68105170Y-133430725D01*
X76046331Y-133430725D01*
X76802000Y-134186395D01*
X77557669Y-133430725D01*
X77495831Y-133194958D01*
X76994878Y-133018581D01*
X76464560Y-133047336D01*
X76108169Y-133194958D01*
X76046331Y-133430725D01*
X68105170Y-133430725D01*
X68105162Y-133430683D01*
X67966090Y-133214559D01*
X67753890Y-133069569D01*
X67502000Y-133018560D01*
X66102000Y-133018560D01*
X65866683Y-133062838D01*
X65650559Y-133201910D01*
X65505569Y-133414110D01*
X65454560Y-133666000D01*
X63181058Y-133666000D01*
X63384411Y-133176272D01*
X63385586Y-131829636D01*
X63136500Y-131226800D01*
X82598760Y-131226800D01*
X82598760Y-132526800D01*
X82643038Y-132762117D01*
X82782110Y-132978241D01*
X82994310Y-133123231D01*
X83246200Y-133174240D01*
X84546200Y-133174240D01*
X84781517Y-133129962D01*
X84997641Y-132990890D01*
X85142631Y-132778690D01*
X85143212Y-132775816D01*
X88176790Y-132775816D01*
X88232471Y-133006411D01*
X88715278Y-133174422D01*
X89225628Y-133144883D01*
X89559929Y-133006411D01*
X89615610Y-132775816D01*
X88896200Y-132056405D01*
X88176790Y-132775816D01*
X85143212Y-132775816D01*
X85193640Y-132526800D01*
X85193640Y-131695878D01*
X87598578Y-131695878D01*
X87628117Y-132206228D01*
X87766589Y-132540529D01*
X87997184Y-132596210D01*
X88716595Y-131876800D01*
X89075805Y-131876800D01*
X89795216Y-132596210D01*
X90025811Y-132540529D01*
X90193822Y-132057722D01*
X90164283Y-131547372D01*
X90031498Y-131226800D01*
X94765360Y-131226800D01*
X94765360Y-132526800D01*
X94809638Y-132762117D01*
X94948710Y-132978241D01*
X95160910Y-133123231D01*
X95412800Y-133174240D01*
X96712800Y-133174240D01*
X96948117Y-133129962D01*
X97164241Y-132990890D01*
X97309231Y-132778690D01*
X97309812Y-132775816D01*
X100343390Y-132775816D01*
X100399071Y-133006411D01*
X100881878Y-133174422D01*
X100951988Y-133170364D01*
X136614414Y-133170364D01*
X137128663Y-134414943D01*
X138080048Y-135367990D01*
X139323728Y-135884411D01*
X140670364Y-135885586D01*
X141914943Y-135371337D01*
X142867990Y-134419952D01*
X143384411Y-133176272D01*
X143385586Y-131829636D01*
X142871337Y-130585057D01*
X141919952Y-129632010D01*
X140676272Y-129115589D01*
X139329636Y-129114414D01*
X138085057Y-129628663D01*
X137132010Y-130580048D01*
X136615589Y-131823728D01*
X136614414Y-133170364D01*
X100951988Y-133170364D01*
X101392228Y-133144883D01*
X101726529Y-133006411D01*
X101782210Y-132775816D01*
X101062800Y-132056405D01*
X100343390Y-132775816D01*
X97309812Y-132775816D01*
X97360240Y-132526800D01*
X97360240Y-131695878D01*
X99765178Y-131695878D01*
X99794717Y-132206228D01*
X99933189Y-132540529D01*
X100163784Y-132596210D01*
X100883195Y-131876800D01*
X101242405Y-131876800D01*
X101961816Y-132596210D01*
X102192411Y-132540529D01*
X102360422Y-132057722D01*
X102330883Y-131547372D01*
X102192411Y-131213071D01*
X101961816Y-131157390D01*
X101242405Y-131876800D01*
X100883195Y-131876800D01*
X100163784Y-131157390D01*
X99933189Y-131213071D01*
X99765178Y-131695878D01*
X97360240Y-131695878D01*
X97360240Y-131226800D01*
X97315962Y-130991483D01*
X97307147Y-130977784D01*
X100343390Y-130977784D01*
X101062800Y-131697195D01*
X101782210Y-130977784D01*
X101726529Y-130747189D01*
X101243722Y-130579178D01*
X100733372Y-130608717D01*
X100399071Y-130747189D01*
X100343390Y-130977784D01*
X97307147Y-130977784D01*
X97176890Y-130775359D01*
X96964690Y-130630369D01*
X96712800Y-130579360D01*
X95412800Y-130579360D01*
X95177483Y-130623638D01*
X94961359Y-130762710D01*
X94816369Y-130974910D01*
X94765360Y-131226800D01*
X90031498Y-131226800D01*
X90025811Y-131213071D01*
X89795216Y-131157390D01*
X89075805Y-131876800D01*
X88716595Y-131876800D01*
X87997184Y-131157390D01*
X87766589Y-131213071D01*
X87598578Y-131695878D01*
X85193640Y-131695878D01*
X85193640Y-131226800D01*
X85149362Y-130991483D01*
X85140547Y-130977784D01*
X88176790Y-130977784D01*
X88896200Y-131697195D01*
X89615610Y-130977784D01*
X89559929Y-130747189D01*
X89077122Y-130579178D01*
X88566772Y-130608717D01*
X88232471Y-130747189D01*
X88176790Y-130977784D01*
X85140547Y-130977784D01*
X85010290Y-130775359D01*
X84798090Y-130630369D01*
X84546200Y-130579360D01*
X83246200Y-130579360D01*
X83010883Y-130623638D01*
X82794759Y-130762710D01*
X82649769Y-130974910D01*
X82598760Y-131226800D01*
X63136500Y-131226800D01*
X62871337Y-130585057D01*
X61919952Y-129632010D01*
X60676272Y-129115589D01*
X59329636Y-129114414D01*
X58085057Y-129628663D01*
X57132010Y-130580048D01*
X56615589Y-131823728D01*
X56614414Y-133170364D01*
X55320000Y-133170364D01*
X55320000Y-123729750D01*
X58817510Y-123729750D01*
X58817510Y-124569799D01*
X58914183Y-124803188D01*
X59092811Y-124981817D01*
X59155013Y-125007582D01*
X58941928Y-125326486D01*
X58817510Y-125951978D01*
X58817510Y-126016022D01*
X58941928Y-126641514D01*
X59296241Y-127171781D01*
X59826508Y-127526094D01*
X60452000Y-127650512D01*
X61077492Y-127526094D01*
X61607759Y-127171781D01*
X61962072Y-126641514D01*
X62086490Y-126016022D01*
X62086490Y-125951978D01*
X61962072Y-125326486D01*
X61748987Y-125007582D01*
X61811189Y-124981817D01*
X61989817Y-124803188D01*
X62086490Y-124569799D01*
X62086490Y-123729750D01*
X61927740Y-123571000D01*
X60579000Y-123571000D01*
X60579000Y-123591000D01*
X60325000Y-123591000D01*
X60325000Y-123571000D01*
X58976260Y-123571000D01*
X58817510Y-123729750D01*
X55320000Y-123729750D01*
X55320000Y-122318201D01*
X58817510Y-122318201D01*
X58817510Y-123158250D01*
X58976260Y-123317000D01*
X60325000Y-123317000D01*
X60325000Y-121968260D01*
X60579000Y-121968260D01*
X60579000Y-123317000D01*
X61927740Y-123317000D01*
X62086490Y-123158250D01*
X62086490Y-122318201D01*
X61989817Y-122084812D01*
X61811189Y-121906183D01*
X61577800Y-121809510D01*
X60737750Y-121809510D01*
X60579000Y-121968260D01*
X60325000Y-121968260D01*
X60166250Y-121809510D01*
X59326200Y-121809510D01*
X59092811Y-121906183D01*
X58914183Y-122084812D01*
X58817510Y-122318201D01*
X55320000Y-122318201D01*
X55320000Y-121682000D01*
X67844560Y-121682000D01*
X67844560Y-123682000D01*
X67888838Y-123917317D01*
X68027910Y-124133441D01*
X68240110Y-124278431D01*
X68492000Y-124329440D01*
X70192000Y-124329440D01*
X70427317Y-124285162D01*
X70643441Y-124146090D01*
X70788431Y-123933890D01*
X70801629Y-123868714D01*
X70831946Y-123914086D01*
X71313715Y-124235993D01*
X71882000Y-124349032D01*
X72450285Y-124235993D01*
X72932054Y-123914086D01*
X73152000Y-123584913D01*
X73371946Y-123914086D01*
X73853715Y-124235993D01*
X74422000Y-124349032D01*
X74990285Y-124235993D01*
X75472054Y-123914086D01*
X75793961Y-123432317D01*
X75871651Y-123041742D01*
X90730716Y-123041742D01*
X90922976Y-123588812D01*
X91309955Y-124020664D01*
X91832740Y-124271553D01*
X91845110Y-124273476D01*
X92075000Y-124152155D01*
X92075000Y-122809000D01*
X90874769Y-122809000D01*
X90730716Y-123041742D01*
X75871651Y-123041742D01*
X75907000Y-122864032D01*
X75907000Y-122499968D01*
X75871652Y-122322258D01*
X90730716Y-122322258D01*
X90874769Y-122555000D01*
X92075000Y-122555000D01*
X92075000Y-121211845D01*
X92329000Y-121211845D01*
X92329000Y-122555000D01*
X92349000Y-122555000D01*
X92349000Y-122809000D01*
X92329000Y-122809000D01*
X92329000Y-124152155D01*
X92558890Y-124273476D01*
X92571260Y-124271553D01*
X93094045Y-124020664D01*
X93477347Y-123592915D01*
X93691946Y-123914086D01*
X94173715Y-124235993D01*
X94742000Y-124349032D01*
X95310285Y-124235993D01*
X95792054Y-123914086D01*
X96006653Y-123592915D01*
X96389955Y-124020664D01*
X96912740Y-124271553D01*
X96925110Y-124273476D01*
X97155000Y-124152155D01*
X97155000Y-122809000D01*
X97409000Y-122809000D01*
X97409000Y-124152155D01*
X97638890Y-124273476D01*
X97651260Y-124271553D01*
X98174045Y-124020664D01*
X98561024Y-123588812D01*
X98753284Y-123041742D01*
X98609231Y-122809000D01*
X97409000Y-122809000D01*
X97155000Y-122809000D01*
X97135000Y-122809000D01*
X97135000Y-122555000D01*
X97155000Y-122555000D01*
X97155000Y-121211845D01*
X97409000Y-121211845D01*
X97409000Y-122555000D01*
X98609231Y-122555000D01*
X98753284Y-122322258D01*
X98561024Y-121775188D01*
X98174045Y-121343336D01*
X97651260Y-121092447D01*
X97638890Y-121090524D01*
X97409000Y-121211845D01*
X97155000Y-121211845D01*
X96925110Y-121090524D01*
X96912740Y-121092447D01*
X96389955Y-121343336D01*
X96006653Y-121771085D01*
X95792054Y-121449914D01*
X95310285Y-121128007D01*
X94742000Y-121014968D01*
X94173715Y-121128007D01*
X93691946Y-121449914D01*
X93477347Y-121771085D01*
X93094045Y-121343336D01*
X92571260Y-121092447D01*
X92558890Y-121090524D01*
X92329000Y-121211845D01*
X92075000Y-121211845D01*
X91845110Y-121090524D01*
X91832740Y-121092447D01*
X91309955Y-121343336D01*
X90922976Y-121775188D01*
X90730716Y-122322258D01*
X75871652Y-122322258D01*
X75793961Y-121931683D01*
X75472054Y-121449914D01*
X74990285Y-121128007D01*
X74422000Y-121014968D01*
X73853715Y-121128007D01*
X73371946Y-121449914D01*
X73152000Y-121779087D01*
X72932054Y-121449914D01*
X72450285Y-121128007D01*
X71882000Y-121014968D01*
X71313715Y-121128007D01*
X70831946Y-121449914D01*
X70803719Y-121492159D01*
X70795162Y-121446683D01*
X70656090Y-121230559D01*
X70443890Y-121085569D01*
X70192000Y-121034560D01*
X68492000Y-121034560D01*
X68256683Y-121078838D01*
X68040559Y-121217910D01*
X67895569Y-121430110D01*
X67844560Y-121682000D01*
X55320000Y-121682000D01*
X55320000Y-120966000D01*
X102919560Y-120966000D01*
X102919560Y-122366000D01*
X102963838Y-122601317D01*
X103102910Y-122817441D01*
X103315110Y-122962431D01*
X103567000Y-123013440D01*
X104967000Y-123013440D01*
X105202317Y-122969162D01*
X105418441Y-122830090D01*
X105563431Y-122617890D01*
X105614440Y-122366000D01*
X105614440Y-120966000D01*
X105570162Y-120730683D01*
X105431090Y-120514559D01*
X105218890Y-120369569D01*
X104967000Y-120318560D01*
X103567000Y-120318560D01*
X103331683Y-120362838D01*
X103115559Y-120501910D01*
X102970569Y-120714110D01*
X102919560Y-120966000D01*
X55320000Y-120966000D01*
X55320000Y-112601275D01*
X103511331Y-112601275D01*
X103573169Y-112837042D01*
X104074122Y-113013419D01*
X104604440Y-112984664D01*
X104960831Y-112837042D01*
X105022669Y-112601275D01*
X104267000Y-111845605D01*
X103511331Y-112601275D01*
X55320000Y-112601275D01*
X55320000Y-111473122D01*
X102919581Y-111473122D01*
X102948336Y-112003440D01*
X103095958Y-112359831D01*
X103331725Y-112421669D01*
X104087395Y-111666000D01*
X104446605Y-111666000D01*
X105202275Y-112421669D01*
X105438042Y-112359831D01*
X105614419Y-111858878D01*
X105585664Y-111328560D01*
X105438042Y-110972169D01*
X105202275Y-110910331D01*
X104446605Y-111666000D01*
X104087395Y-111666000D01*
X103331725Y-110910331D01*
X103095958Y-110972169D01*
X102919581Y-111473122D01*
X55320000Y-111473122D01*
X55320000Y-110730725D01*
X103511331Y-110730725D01*
X104267000Y-111486395D01*
X105022669Y-110730725D01*
X104960831Y-110494958D01*
X104459878Y-110318581D01*
X103929560Y-110347336D01*
X103573169Y-110494958D01*
X103511331Y-110730725D01*
X55320000Y-110730725D01*
X55320000Y-107259968D01*
X67857000Y-107259968D01*
X67857000Y-107624032D01*
X67970039Y-108192317D01*
X68291946Y-108674086D01*
X68773715Y-108995993D01*
X69342000Y-109109032D01*
X69910285Y-108995993D01*
X70392054Y-108674086D01*
X70612000Y-108344913D01*
X70831946Y-108674086D01*
X71313715Y-108995993D01*
X71882000Y-109109032D01*
X72450285Y-108995993D01*
X72932054Y-108674086D01*
X73152000Y-108344913D01*
X73371946Y-108674086D01*
X73853715Y-108995993D01*
X74422000Y-109109032D01*
X74990285Y-108995993D01*
X75472054Y-108674086D01*
X75793961Y-108192317D01*
X75871651Y-107801742D01*
X90730716Y-107801742D01*
X90922976Y-108348812D01*
X91309955Y-108780664D01*
X91832740Y-109031553D01*
X91845110Y-109033476D01*
X92075000Y-108912155D01*
X92075000Y-107569000D01*
X90874769Y-107569000D01*
X90730716Y-107801742D01*
X75871651Y-107801742D01*
X75907000Y-107624032D01*
X75907000Y-107259968D01*
X75871652Y-107082258D01*
X90730716Y-107082258D01*
X90874769Y-107315000D01*
X92075000Y-107315000D01*
X92075000Y-105971845D01*
X92329000Y-105971845D01*
X92329000Y-107315000D01*
X92349000Y-107315000D01*
X92349000Y-107569000D01*
X92329000Y-107569000D01*
X92329000Y-108912155D01*
X92558890Y-109033476D01*
X92571260Y-109031553D01*
X93094045Y-108780664D01*
X93477347Y-108352915D01*
X93691946Y-108674086D01*
X94173715Y-108995993D01*
X94742000Y-109109032D01*
X95310285Y-108995993D01*
X95792054Y-108674086D01*
X96006653Y-108352915D01*
X96389955Y-108780664D01*
X96912740Y-109031553D01*
X96925110Y-109033476D01*
X97155000Y-108912155D01*
X97155000Y-107569000D01*
X97409000Y-107569000D01*
X97409000Y-108912155D01*
X97638890Y-109033476D01*
X97651260Y-109031553D01*
X98174045Y-108780664D01*
X98561024Y-108348812D01*
X98753284Y-107801742D01*
X98609231Y-107569000D01*
X97409000Y-107569000D01*
X97155000Y-107569000D01*
X97135000Y-107569000D01*
X97135000Y-107315000D01*
X97155000Y-107315000D01*
X97155000Y-105971845D01*
X97409000Y-105971845D01*
X97409000Y-107315000D01*
X98609231Y-107315000D01*
X98753284Y-107082258D01*
X98561024Y-106535188D01*
X98174045Y-106103336D01*
X97651260Y-105852447D01*
X97638890Y-105850524D01*
X97409000Y-105971845D01*
X97155000Y-105971845D01*
X96925110Y-105850524D01*
X96912740Y-105852447D01*
X96389955Y-106103336D01*
X96006653Y-106531085D01*
X95792054Y-106209914D01*
X95310285Y-105888007D01*
X94742000Y-105774968D01*
X94173715Y-105888007D01*
X93691946Y-106209914D01*
X93477347Y-106531085D01*
X93094045Y-106103336D01*
X92571260Y-105852447D01*
X92558890Y-105850524D01*
X92329000Y-105971845D01*
X92075000Y-105971845D01*
X91845110Y-105850524D01*
X91832740Y-105852447D01*
X91309955Y-106103336D01*
X90922976Y-106535188D01*
X90730716Y-107082258D01*
X75871652Y-107082258D01*
X75793961Y-106691683D01*
X75472054Y-106209914D01*
X74990285Y-105888007D01*
X74422000Y-105774968D01*
X73853715Y-105888007D01*
X73371946Y-106209914D01*
X73152000Y-106539087D01*
X72932054Y-106209914D01*
X72450285Y-105888007D01*
X71882000Y-105774968D01*
X71313715Y-105888007D01*
X70831946Y-106209914D01*
X70612000Y-106539087D01*
X70392054Y-106209914D01*
X69910285Y-105888007D01*
X69342000Y-105774968D01*
X68773715Y-105888007D01*
X68291946Y-106209914D01*
X67970039Y-106691683D01*
X67857000Y-107259968D01*
X55320000Y-107259968D01*
X55320000Y-85995510D01*
X60583070Y-85995510D01*
X60583070Y-87994490D01*
X60627348Y-88229807D01*
X60766420Y-88445931D01*
X60932473Y-88559390D01*
X60719928Y-88877486D01*
X60595510Y-89502978D01*
X60595510Y-89567022D01*
X60719928Y-90192514D01*
X61074241Y-90722781D01*
X61604508Y-91077094D01*
X62230000Y-91201512D01*
X62855492Y-91077094D01*
X63385759Y-90722781D01*
X63487844Y-90570000D01*
X65230288Y-90570000D01*
X67594142Y-92933853D01*
X67594144Y-92933856D01*
X67737348Y-93029541D01*
X67929923Y-93158215D01*
X68326000Y-93237001D01*
X68326005Y-93237000D01*
X74167995Y-93237000D01*
X74168000Y-93237001D01*
X74564077Y-93158215D01*
X74899856Y-92933856D01*
X79725853Y-88107858D01*
X79725856Y-88107856D01*
X79785193Y-88019051D01*
X80044054Y-87846086D01*
X80264000Y-87516913D01*
X80372000Y-87678547D01*
X80372000Y-88344289D01*
X75136288Y-93580000D01*
X68580005Y-93580000D01*
X68580000Y-93579999D01*
X68183923Y-93658785D01*
X67848144Y-93883144D01*
X67848142Y-93883147D01*
X66246288Y-95485000D01*
X63870248Y-95485000D01*
X63832652Y-95285193D01*
X63693580Y-95069069D01*
X63481380Y-94924079D01*
X63229490Y-94873070D01*
X61230510Y-94873070D01*
X60995193Y-94917348D01*
X60779069Y-95056420D01*
X60634079Y-95268620D01*
X60583070Y-95520510D01*
X60583070Y-97519490D01*
X60627348Y-97754807D01*
X60766420Y-97970931D01*
X60932473Y-98084390D01*
X60719928Y-98402486D01*
X60595510Y-99027978D01*
X60595510Y-99092022D01*
X60719928Y-99717514D01*
X61074241Y-100247781D01*
X61604508Y-100602094D01*
X62230000Y-100726512D01*
X62855492Y-100602094D01*
X63385759Y-100247781D01*
X63487844Y-100095000D01*
X67436995Y-100095000D01*
X67437000Y-100095001D01*
X67833077Y-100016215D01*
X68168856Y-99791856D01*
X68360962Y-99599750D01*
X69889000Y-99599750D01*
X69889000Y-100440310D01*
X69985673Y-100673699D01*
X70164302Y-100852327D01*
X70397691Y-100949000D01*
X71088250Y-100949000D01*
X71247000Y-100790250D01*
X71247000Y-99441000D01*
X71501000Y-99441000D01*
X71501000Y-100790250D01*
X71659750Y-100949000D01*
X72350309Y-100949000D01*
X72583698Y-100852327D01*
X72762327Y-100673699D01*
X72850359Y-100461171D01*
X73021955Y-100652664D01*
X73544740Y-100903553D01*
X73557110Y-100905476D01*
X73787000Y-100784155D01*
X73787000Y-99441000D01*
X74041000Y-99441000D01*
X74041000Y-100784155D01*
X74270890Y-100905476D01*
X74283260Y-100903553D01*
X74806045Y-100652664D01*
X75184000Y-100230882D01*
X75561955Y-100652664D01*
X76084740Y-100903553D01*
X76097110Y-100905476D01*
X76327000Y-100784155D01*
X76327000Y-99441000D01*
X76581000Y-99441000D01*
X76581000Y-100784155D01*
X76810890Y-100905476D01*
X76823260Y-100903553D01*
X77346045Y-100652664D01*
X77724000Y-100230882D01*
X78101955Y-100652664D01*
X78624740Y-100903553D01*
X78637110Y-100905476D01*
X78867000Y-100784155D01*
X78867000Y-99441000D01*
X76581000Y-99441000D01*
X76327000Y-99441000D01*
X74041000Y-99441000D01*
X73787000Y-99441000D01*
X71501000Y-99441000D01*
X71247000Y-99441000D01*
X70047750Y-99441000D01*
X69889000Y-99599750D01*
X68360962Y-99599750D01*
X69971010Y-97989702D01*
X69889000Y-98187690D01*
X69889000Y-99028250D01*
X70047750Y-99187000D01*
X71247000Y-99187000D01*
X71247000Y-99167000D01*
X71501000Y-99167000D01*
X71501000Y-99187000D01*
X73787000Y-99187000D01*
X73787000Y-99167000D01*
X74041000Y-99167000D01*
X74041000Y-99187000D01*
X76327000Y-99187000D01*
X76327000Y-99167000D01*
X76581000Y-99167000D01*
X76581000Y-99187000D01*
X78867000Y-99187000D01*
X78867000Y-97843845D01*
X78637110Y-97722524D01*
X78624740Y-97724447D01*
X78101955Y-97975336D01*
X77724000Y-98397118D01*
X77346045Y-97975336D01*
X76999446Y-97809000D01*
X77215995Y-97809000D01*
X77216000Y-97809001D01*
X77612077Y-97730215D01*
X77947856Y-97505856D01*
X84805853Y-90647858D01*
X84805856Y-90647856D01*
X85030215Y-90312077D01*
X85058476Y-90170000D01*
X85109001Y-89916000D01*
X85109000Y-89915995D01*
X85109000Y-87856145D01*
X85124054Y-87846086D01*
X85344000Y-87516913D01*
X85563946Y-87846086D01*
X86045715Y-88167993D01*
X86614000Y-88281032D01*
X87182285Y-88167993D01*
X87664054Y-87846086D01*
X87878653Y-87524915D01*
X88261955Y-87952664D01*
X88784740Y-88203553D01*
X88797110Y-88205476D01*
X89027000Y-88084155D01*
X89027000Y-86741000D01*
X89281000Y-86741000D01*
X89281000Y-88084155D01*
X89510890Y-88205476D01*
X89523260Y-88203553D01*
X90046045Y-87952664D01*
X90433024Y-87520812D01*
X90625284Y-86973742D01*
X90481231Y-86741000D01*
X89281000Y-86741000D01*
X89027000Y-86741000D01*
X89007000Y-86741000D01*
X89007000Y-86487000D01*
X89027000Y-86487000D01*
X89027000Y-85143845D01*
X89281000Y-85143845D01*
X89281000Y-86487000D01*
X90481231Y-86487000D01*
X90625284Y-86254258D01*
X90433024Y-85707188D01*
X90046045Y-85275336D01*
X89523260Y-85024447D01*
X89510890Y-85022524D01*
X89281000Y-85143845D01*
X89027000Y-85143845D01*
X88797110Y-85022524D01*
X88784740Y-85024447D01*
X88261955Y-85275336D01*
X87878653Y-85703085D01*
X87664054Y-85381914D01*
X87491351Y-85266517D01*
X88483868Y-84274000D01*
X89951132Y-84274000D01*
X91817465Y-86140333D01*
X91916883Y-86380943D01*
X92179673Y-86644192D01*
X92523201Y-86786838D01*
X92895167Y-86787162D01*
X93238943Y-86645117D01*
X93502192Y-86382327D01*
X93644838Y-86038799D01*
X93645162Y-85666833D01*
X93503117Y-85323057D01*
X93240327Y-85059808D01*
X92998090Y-84959222D01*
X90887434Y-82848566D01*
X90616541Y-82667561D01*
X90297000Y-82604000D01*
X88138000Y-82604000D01*
X87818459Y-82667561D01*
X87547566Y-82848566D01*
X86023566Y-84372566D01*
X85842561Y-84643459D01*
X85779000Y-84963000D01*
X85779000Y-85238220D01*
X85563946Y-85381914D01*
X85344000Y-85711087D01*
X85124054Y-85381914D01*
X84642285Y-85060007D01*
X84074000Y-84946968D01*
X83505715Y-85060007D01*
X83023946Y-85381914D01*
X82804000Y-85711087D01*
X82584054Y-85381914D01*
X82102285Y-85060007D01*
X81534000Y-84946968D01*
X80965715Y-85060007D01*
X80483946Y-85381914D01*
X80264000Y-85711087D01*
X80044054Y-85381914D01*
X79562285Y-85060007D01*
X78994000Y-84946968D01*
X78425715Y-85060007D01*
X77943946Y-85381914D01*
X77724000Y-85711087D01*
X77504054Y-85381914D01*
X77022285Y-85060007D01*
X76454000Y-84946968D01*
X75885715Y-85060007D01*
X75403946Y-85381914D01*
X75189347Y-85703085D01*
X74806045Y-85275336D01*
X74283260Y-85024447D01*
X74270890Y-85022524D01*
X74041000Y-85143845D01*
X74041000Y-86487000D01*
X74061000Y-86487000D01*
X74061000Y-86741000D01*
X74041000Y-86741000D01*
X74041000Y-88084155D01*
X74198837Y-88167451D01*
X73231288Y-89135000D01*
X69643711Y-89135000D01*
X66940680Y-86431968D01*
X69889000Y-86431968D01*
X69889000Y-86796032D01*
X70002039Y-87364317D01*
X70323946Y-87846086D01*
X70805715Y-88167993D01*
X71374000Y-88281032D01*
X71942285Y-88167993D01*
X72424054Y-87846086D01*
X72638653Y-87524915D01*
X73021955Y-87952664D01*
X73544740Y-88203553D01*
X73557110Y-88205476D01*
X73787000Y-88084155D01*
X73787000Y-86741000D01*
X73767000Y-86741000D01*
X73767000Y-86487000D01*
X73787000Y-86487000D01*
X73787000Y-85143845D01*
X73557110Y-85022524D01*
X73544740Y-85024447D01*
X73021955Y-85275336D01*
X72638653Y-85703085D01*
X72424054Y-85381914D01*
X71942285Y-85060007D01*
X71374000Y-84946968D01*
X70805715Y-85060007D01*
X70323946Y-85381914D01*
X70002039Y-85863683D01*
X69889000Y-86431968D01*
X66940680Y-86431968D01*
X66771856Y-86263144D01*
X66436077Y-86038785D01*
X66040000Y-85959999D01*
X66039995Y-85960000D01*
X63870248Y-85960000D01*
X63832652Y-85760193D01*
X63693580Y-85544069D01*
X63481380Y-85399079D01*
X63229490Y-85348070D01*
X61230510Y-85348070D01*
X60995193Y-85392348D01*
X60779069Y-85531420D01*
X60634079Y-85743620D01*
X60583070Y-85995510D01*
X55320000Y-85995510D01*
X55320000Y-80376000D01*
X69568560Y-80376000D01*
X69568560Y-81676000D01*
X69612838Y-81911317D01*
X69751910Y-82127441D01*
X69964110Y-82272431D01*
X70216000Y-82323440D01*
X71516000Y-82323440D01*
X71751317Y-82279162D01*
X71967441Y-82140090D01*
X72112431Y-81927890D01*
X72113012Y-81925016D01*
X75146590Y-81925016D01*
X75202271Y-82155611D01*
X75685078Y-82323622D01*
X76195428Y-82294083D01*
X76529729Y-82155611D01*
X76585410Y-81925016D01*
X75866000Y-81205605D01*
X75146590Y-81925016D01*
X72113012Y-81925016D01*
X72163440Y-81676000D01*
X72163440Y-80845078D01*
X74568378Y-80845078D01*
X74597917Y-81355428D01*
X74736389Y-81689729D01*
X74966984Y-81745410D01*
X75686395Y-81026000D01*
X76045605Y-81026000D01*
X76765016Y-81745410D01*
X76995611Y-81689729D01*
X77163622Y-81206922D01*
X77134083Y-80696572D01*
X76995611Y-80362271D01*
X76765016Y-80306590D01*
X76045605Y-81026000D01*
X75686395Y-81026000D01*
X74966984Y-80306590D01*
X74736389Y-80362271D01*
X74568378Y-80845078D01*
X72163440Y-80845078D01*
X72163440Y-80376000D01*
X72119162Y-80140683D01*
X72110347Y-80126984D01*
X75146590Y-80126984D01*
X75866000Y-80846395D01*
X76585410Y-80126984D01*
X76529729Y-79896389D01*
X76046922Y-79728378D01*
X75536572Y-79757917D01*
X75202271Y-79896389D01*
X75146590Y-80126984D01*
X72110347Y-80126984D01*
X71980090Y-79924559D01*
X71767890Y-79779569D01*
X71516000Y-79728560D01*
X70216000Y-79728560D01*
X69980683Y-79772838D01*
X69764559Y-79911910D01*
X69619569Y-80124110D01*
X69568560Y-80376000D01*
X55320000Y-80376000D01*
X55320000Y-61865510D01*
X60583070Y-61865510D01*
X60583070Y-63864490D01*
X60627348Y-64099807D01*
X60766420Y-64315931D01*
X60932473Y-64429390D01*
X60719928Y-64747486D01*
X60595510Y-65372978D01*
X60595510Y-65437022D01*
X60719928Y-66062514D01*
X61074241Y-66592781D01*
X61604508Y-66947094D01*
X62230000Y-67071512D01*
X62855492Y-66947094D01*
X63385759Y-66592781D01*
X63487844Y-66440000D01*
X63896788Y-66440000D01*
X65689142Y-68232353D01*
X65689144Y-68232356D01*
X65880259Y-68360054D01*
X66024923Y-68456715D01*
X66421000Y-68535501D01*
X66421005Y-68535500D01*
X68657927Y-68535500D01*
X68557429Y-68602651D01*
X68356144Y-68737144D01*
X68356142Y-68737147D01*
X65103288Y-71990000D01*
X63870248Y-71990000D01*
X63832652Y-71790193D01*
X63693580Y-71574069D01*
X63481380Y-71429079D01*
X63229490Y-71378070D01*
X61230510Y-71378070D01*
X60995193Y-71422348D01*
X60779069Y-71561420D01*
X60634079Y-71773620D01*
X60583070Y-72025510D01*
X60583070Y-74024490D01*
X60627348Y-74259807D01*
X60766420Y-74475931D01*
X60932473Y-74589390D01*
X60719928Y-74907486D01*
X60595510Y-75532978D01*
X60595510Y-75597022D01*
X60719928Y-76222514D01*
X61074241Y-76752781D01*
X61604508Y-77107094D01*
X62230000Y-77231512D01*
X62855492Y-77107094D01*
X63385759Y-76752781D01*
X63487844Y-76600000D01*
X66420995Y-76600000D01*
X66421000Y-76600001D01*
X66817077Y-76521215D01*
X67152856Y-76296856D01*
X67725961Y-75723750D01*
X69635000Y-75723750D01*
X69635000Y-76564310D01*
X69731673Y-76797699D01*
X69910302Y-76976327D01*
X70143691Y-77073000D01*
X70834250Y-77073000D01*
X70993000Y-76914250D01*
X70993000Y-75565000D01*
X71247000Y-75565000D01*
X71247000Y-76914250D01*
X71405750Y-77073000D01*
X72096309Y-77073000D01*
X72329698Y-76976327D01*
X72508327Y-76797699D01*
X72596359Y-76585171D01*
X72767955Y-76776664D01*
X73290740Y-77027553D01*
X73303110Y-77029476D01*
X73533000Y-76908155D01*
X73533000Y-75565000D01*
X73787000Y-75565000D01*
X73787000Y-76908155D01*
X74016890Y-77029476D01*
X74029260Y-77027553D01*
X74552045Y-76776664D01*
X74930000Y-76354882D01*
X75307955Y-76776664D01*
X75830740Y-77027553D01*
X75843110Y-77029476D01*
X76073000Y-76908155D01*
X76073000Y-75565000D01*
X76327000Y-75565000D01*
X76327000Y-76908155D01*
X76556890Y-77029476D01*
X76569260Y-77027553D01*
X77092045Y-76776664D01*
X77470000Y-76354882D01*
X77847955Y-76776664D01*
X78370740Y-77027553D01*
X78383110Y-77029476D01*
X78613000Y-76908155D01*
X78613000Y-75565000D01*
X76327000Y-75565000D01*
X76073000Y-75565000D01*
X73787000Y-75565000D01*
X73533000Y-75565000D01*
X71247000Y-75565000D01*
X70993000Y-75565000D01*
X69793750Y-75565000D01*
X69635000Y-75723750D01*
X67725961Y-75723750D01*
X69138021Y-74311690D01*
X69635000Y-74311690D01*
X69635000Y-75152250D01*
X69793750Y-75311000D01*
X70993000Y-75311000D01*
X70993000Y-73961750D01*
X71247000Y-73961750D01*
X71247000Y-75311000D01*
X73533000Y-75311000D01*
X73533000Y-73967845D01*
X73787000Y-73967845D01*
X73787000Y-75311000D01*
X76073000Y-75311000D01*
X76073000Y-73967845D01*
X76327000Y-73967845D01*
X76327000Y-75311000D01*
X78613000Y-75311000D01*
X78613000Y-73967845D01*
X78383110Y-73846524D01*
X78370740Y-73848447D01*
X77847955Y-74099336D01*
X77470000Y-74521118D01*
X77092045Y-74099336D01*
X76569260Y-73848447D01*
X76556890Y-73846524D01*
X76327000Y-73967845D01*
X76073000Y-73967845D01*
X75843110Y-73846524D01*
X75830740Y-73848447D01*
X75307955Y-74099336D01*
X74930000Y-74521118D01*
X74552045Y-74099336D01*
X74029260Y-73848447D01*
X74016890Y-73846524D01*
X73787000Y-73967845D01*
X73533000Y-73967845D01*
X73303110Y-73846524D01*
X73290740Y-73848447D01*
X72767955Y-74099336D01*
X72596359Y-74290829D01*
X72508327Y-74078301D01*
X72329698Y-73899673D01*
X72096309Y-73803000D01*
X71405750Y-73803000D01*
X71247000Y-73961750D01*
X70993000Y-73961750D01*
X70834250Y-73803000D01*
X70143691Y-73803000D01*
X69910302Y-73899673D01*
X69731673Y-74078301D01*
X69635000Y-74311690D01*
X69138021Y-74311690D01*
X70278711Y-73171000D01*
X78485995Y-73171000D01*
X78486000Y-73171001D01*
X78882077Y-73092215D01*
X79217856Y-72867856D01*
X84551853Y-67533858D01*
X84551856Y-67533856D01*
X84776215Y-67198077D01*
X84794844Y-67104423D01*
X84855001Y-66802000D01*
X84855000Y-66801995D01*
X84855000Y-66406000D01*
X94968560Y-66406000D01*
X94968560Y-67706000D01*
X95012838Y-67941317D01*
X95151910Y-68157441D01*
X95364110Y-68302431D01*
X95616000Y-68353440D01*
X96916000Y-68353440D01*
X97151317Y-68309162D01*
X97367441Y-68170090D01*
X97512431Y-67957890D01*
X97513012Y-67955016D01*
X100546590Y-67955016D01*
X100602271Y-68185611D01*
X101085078Y-68353622D01*
X101595428Y-68324083D01*
X101929729Y-68185611D01*
X101985410Y-67955016D01*
X101266000Y-67235605D01*
X100546590Y-67955016D01*
X97513012Y-67955016D01*
X97563440Y-67706000D01*
X97563440Y-66875078D01*
X99968378Y-66875078D01*
X99997917Y-67385428D01*
X100136389Y-67719729D01*
X100366984Y-67775410D01*
X101086395Y-67056000D01*
X101445605Y-67056000D01*
X102165016Y-67775410D01*
X102395611Y-67719729D01*
X102563622Y-67236922D01*
X102534083Y-66726572D01*
X102395611Y-66392271D01*
X102165016Y-66336590D01*
X101445605Y-67056000D01*
X101086395Y-67056000D01*
X100366984Y-66336590D01*
X100136389Y-66392271D01*
X99968378Y-66875078D01*
X97563440Y-66875078D01*
X97563440Y-66406000D01*
X97519162Y-66170683D01*
X97510347Y-66156984D01*
X100546590Y-66156984D01*
X101266000Y-66876395D01*
X101985410Y-66156984D01*
X101929729Y-65926389D01*
X101446922Y-65758378D01*
X100936572Y-65787917D01*
X100602271Y-65926389D01*
X100546590Y-66156984D01*
X97510347Y-66156984D01*
X97380090Y-65954559D01*
X97167890Y-65809569D01*
X96916000Y-65758560D01*
X95616000Y-65758560D01*
X95380683Y-65802838D01*
X95164559Y-65941910D01*
X95019569Y-66154110D01*
X94968560Y-66406000D01*
X84855000Y-66406000D01*
X84855000Y-63980145D01*
X84870054Y-63970086D01*
X85090000Y-63640913D01*
X85309946Y-63970086D01*
X85791715Y-64291993D01*
X86360000Y-64405032D01*
X86928285Y-64291993D01*
X87410054Y-63970086D01*
X87624653Y-63648915D01*
X88007955Y-64076664D01*
X88530740Y-64327553D01*
X88543110Y-64329476D01*
X88773000Y-64208155D01*
X88773000Y-62865000D01*
X89027000Y-62865000D01*
X89027000Y-64208155D01*
X89256890Y-64329476D01*
X89269260Y-64327553D01*
X89792045Y-64076664D01*
X90179024Y-63644812D01*
X90371284Y-63097742D01*
X90227231Y-62865000D01*
X89027000Y-62865000D01*
X88773000Y-62865000D01*
X88753000Y-62865000D01*
X88753000Y-62611000D01*
X88773000Y-62611000D01*
X88773000Y-61267845D01*
X89027000Y-61267845D01*
X89027000Y-62611000D01*
X90227231Y-62611000D01*
X90371284Y-62378258D01*
X90179024Y-61831188D01*
X89792045Y-61399336D01*
X89269260Y-61148447D01*
X89256890Y-61146524D01*
X89027000Y-61267845D01*
X88773000Y-61267845D01*
X88543110Y-61146524D01*
X88530740Y-61148447D01*
X88007955Y-61399336D01*
X87624653Y-61827085D01*
X87410054Y-61505914D01*
X87195000Y-61362220D01*
X87195000Y-60035868D01*
X89245868Y-57985000D01*
X110144132Y-57985000D01*
X111502465Y-59343333D01*
X111601883Y-59583943D01*
X111864673Y-59847192D01*
X112208201Y-59989838D01*
X112438094Y-59990038D01*
X110454948Y-61973184D01*
X110392993Y-61661715D01*
X110071086Y-61179946D01*
X110028841Y-61151719D01*
X110074317Y-61143162D01*
X110290441Y-61004090D01*
X110435431Y-60791890D01*
X110486440Y-60540000D01*
X110486440Y-58840000D01*
X110442162Y-58604683D01*
X110303090Y-58388559D01*
X110090890Y-58243569D01*
X109839000Y-58192560D01*
X107839000Y-58192560D01*
X107603683Y-58236838D01*
X107387559Y-58375910D01*
X107242569Y-58588110D01*
X107191560Y-58840000D01*
X107191560Y-60540000D01*
X107235838Y-60775317D01*
X107374910Y-60991441D01*
X107587110Y-61136431D01*
X107652286Y-61149629D01*
X107606914Y-61179946D01*
X107285007Y-61661715D01*
X107171968Y-62230000D01*
X107285007Y-62798285D01*
X107606914Y-63280054D01*
X107936087Y-63500000D01*
X107606914Y-63719946D01*
X107285007Y-64201715D01*
X107171968Y-64770000D01*
X107285007Y-65338285D01*
X107606914Y-65820054D01*
X107936087Y-66040000D01*
X107606914Y-66259946D01*
X107285007Y-66741715D01*
X107171968Y-67310000D01*
X107285007Y-67878285D01*
X107606914Y-68360054D01*
X107936087Y-68580000D01*
X107606914Y-68799946D01*
X107285007Y-69281715D01*
X107171968Y-69850000D01*
X107285007Y-70418285D01*
X107606914Y-70900054D01*
X107928085Y-71114653D01*
X107500336Y-71497955D01*
X107249447Y-72020740D01*
X107247524Y-72033110D01*
X107368845Y-72263000D01*
X108712000Y-72263000D01*
X108712000Y-72243000D01*
X108966000Y-72243000D01*
X108966000Y-72263000D01*
X110309155Y-72263000D01*
X110430476Y-72033110D01*
X110428553Y-72020740D01*
X110177664Y-71497955D01*
X109749915Y-71114653D01*
X110071086Y-70900054D01*
X110392993Y-70418285D01*
X110506032Y-69850000D01*
X110392993Y-69281715D01*
X110071086Y-68799946D01*
X109741913Y-68580000D01*
X110071086Y-68360054D01*
X110392993Y-67878285D01*
X110506032Y-67310000D01*
X110425372Y-66904496D01*
X111460148Y-65869720D01*
X111459838Y-66225167D01*
X111560000Y-66467578D01*
X111560000Y-94904132D01*
X109863134Y-96600998D01*
X109741913Y-96520000D01*
X110071086Y-96300054D01*
X110392993Y-95818285D01*
X110506032Y-95250000D01*
X110392993Y-94681715D01*
X110071086Y-94199946D01*
X109741913Y-93980000D01*
X110071086Y-93760054D01*
X110392993Y-93278285D01*
X110506032Y-92710000D01*
X110392993Y-92141715D01*
X110071086Y-91659946D01*
X109741913Y-91440000D01*
X110071086Y-91220054D01*
X110392993Y-90738285D01*
X110506032Y-90170000D01*
X110392993Y-89601715D01*
X110071086Y-89119946D01*
X109741913Y-88900000D01*
X110071086Y-88680054D01*
X110392993Y-88198285D01*
X110506032Y-87630000D01*
X110392993Y-87061715D01*
X110071086Y-86579946D01*
X109741913Y-86360000D01*
X110071086Y-86140054D01*
X110392993Y-85658285D01*
X110506032Y-85090000D01*
X110392993Y-84521715D01*
X110071086Y-84039946D01*
X109741913Y-83820000D01*
X110071086Y-83600054D01*
X110392993Y-83118285D01*
X110506032Y-82550000D01*
X110392993Y-81981715D01*
X110071086Y-81499946D01*
X109741913Y-81280000D01*
X110071086Y-81060054D01*
X110392993Y-80578285D01*
X110506032Y-80010000D01*
X110392993Y-79441715D01*
X110071086Y-78959946D01*
X109741913Y-78740000D01*
X110071086Y-78520054D01*
X110392993Y-78038285D01*
X110506032Y-77470000D01*
X110392993Y-76901715D01*
X110071086Y-76419946D01*
X109741913Y-76200000D01*
X110071086Y-75980054D01*
X110392993Y-75498285D01*
X110506032Y-74930000D01*
X110392993Y-74361715D01*
X110071086Y-73879946D01*
X109749915Y-73665347D01*
X110177664Y-73282045D01*
X110428553Y-72759260D01*
X110430476Y-72746890D01*
X110309155Y-72517000D01*
X108966000Y-72517000D01*
X108966000Y-72537000D01*
X108712000Y-72537000D01*
X108712000Y-72517000D01*
X107368845Y-72517000D01*
X107247524Y-72746890D01*
X107249447Y-72759260D01*
X107500336Y-73282045D01*
X107928085Y-73665347D01*
X107606914Y-73879946D01*
X107463220Y-74095000D01*
X91150868Y-74095000D01*
X89490434Y-72434566D01*
X89423736Y-72390000D01*
X89219541Y-72253561D01*
X88900000Y-72190000D01*
X86995000Y-72190000D01*
X86675460Y-72253560D01*
X86404566Y-72434566D01*
X85769566Y-73069566D01*
X85588561Y-73340459D01*
X85525000Y-73660000D01*
X85525000Y-74062220D01*
X85309946Y-74205914D01*
X85090000Y-74535087D01*
X84870054Y-74205914D01*
X84388285Y-73884007D01*
X83820000Y-73770968D01*
X83251715Y-73884007D01*
X82769946Y-74205914D01*
X82550000Y-74535087D01*
X82330054Y-74205914D01*
X81848285Y-73884007D01*
X81280000Y-73770968D01*
X80711715Y-73884007D01*
X80229946Y-74205914D01*
X80015347Y-74527085D01*
X79632045Y-74099336D01*
X79109260Y-73848447D01*
X79096890Y-73846524D01*
X78867000Y-73967845D01*
X78867000Y-75311000D01*
X78887000Y-75311000D01*
X78887000Y-75565000D01*
X78867000Y-75565000D01*
X78867000Y-76908155D01*
X79096890Y-77029476D01*
X79109260Y-77027553D01*
X79632045Y-76776664D01*
X80015347Y-76348915D01*
X80229946Y-76670086D01*
X80445000Y-76813780D01*
X80445000Y-77470000D01*
X80508561Y-77789541D01*
X80674767Y-78038285D01*
X80689566Y-78060434D01*
X81959566Y-79330434D01*
X82230459Y-79511439D01*
X82550000Y-79575000D01*
X98079132Y-79575000D01*
X106724566Y-88220434D01*
X106995460Y-88401440D01*
X107315000Y-88465000D01*
X107463220Y-88465000D01*
X107606914Y-88680054D01*
X107936087Y-88900000D01*
X107606914Y-89119946D01*
X107463220Y-89335000D01*
X107406868Y-89335000D01*
X98189934Y-80118066D01*
X98091893Y-80052557D01*
X97919041Y-79937061D01*
X97599500Y-79873500D01*
X84434372Y-79873500D01*
X84350327Y-79789308D01*
X84006799Y-79646662D01*
X83634833Y-79646338D01*
X83291057Y-79788383D01*
X83027808Y-80051173D01*
X82885162Y-80394701D01*
X82884838Y-80766667D01*
X83026883Y-81110443D01*
X83289673Y-81373692D01*
X83633201Y-81516338D01*
X83811228Y-81516493D01*
X83947000Y-81543500D01*
X97253632Y-81543500D01*
X106470566Y-90760434D01*
X106741460Y-90941440D01*
X107061000Y-91005000D01*
X107463220Y-91005000D01*
X107606914Y-91220054D01*
X107936087Y-91440000D01*
X107606914Y-91659946D01*
X107463220Y-91875000D01*
X106680000Y-91875000D01*
X106360459Y-91938561D01*
X106101430Y-92111639D01*
X106089566Y-92119566D01*
X102270132Y-95939000D01*
X91486234Y-95939000D01*
X91245799Y-95839162D01*
X90873833Y-95838838D01*
X90530057Y-95980883D01*
X90266808Y-96243673D01*
X90124162Y-96587201D01*
X90123838Y-96959167D01*
X90265883Y-97302943D01*
X90528673Y-97566192D01*
X90872201Y-97708838D01*
X91244167Y-97709162D01*
X91486578Y-97609000D01*
X102616000Y-97609000D01*
X102935541Y-97545439D01*
X103206434Y-97364434D01*
X107025868Y-93545000D01*
X107463220Y-93545000D01*
X107606914Y-93760054D01*
X107936087Y-93980000D01*
X107606914Y-94199946D01*
X107463220Y-94415000D01*
X106680000Y-94415000D01*
X106360459Y-94478561D01*
X106208404Y-94580161D01*
X106089566Y-94659566D01*
X99095132Y-101654000D01*
X85562868Y-101654000D01*
X84909000Y-101000132D01*
X84909000Y-100689780D01*
X85124054Y-100546086D01*
X85344000Y-100216913D01*
X85563946Y-100546086D01*
X86045715Y-100867993D01*
X86614000Y-100981032D01*
X87182285Y-100867993D01*
X87664054Y-100546086D01*
X87884000Y-100216913D01*
X88103946Y-100546086D01*
X88585715Y-100867993D01*
X89154000Y-100981032D01*
X89722285Y-100867993D01*
X90204054Y-100546086D01*
X90525961Y-100064317D01*
X90639000Y-99496032D01*
X90639000Y-99131968D01*
X90525961Y-98563683D01*
X90204054Y-98081914D01*
X89989000Y-97938220D01*
X89989000Y-95468868D01*
X93651868Y-91806000D01*
X94968560Y-91806000D01*
X94968560Y-93106000D01*
X95012838Y-93341317D01*
X95151910Y-93557441D01*
X95364110Y-93702431D01*
X95616000Y-93753440D01*
X96916000Y-93753440D01*
X97151317Y-93709162D01*
X97367441Y-93570090D01*
X97512431Y-93357890D01*
X97513012Y-93355016D01*
X100546590Y-93355016D01*
X100602271Y-93585611D01*
X101085078Y-93753622D01*
X101595428Y-93724083D01*
X101929729Y-93585611D01*
X101985410Y-93355016D01*
X101266000Y-92635605D01*
X100546590Y-93355016D01*
X97513012Y-93355016D01*
X97563440Y-93106000D01*
X97563440Y-92275078D01*
X99968378Y-92275078D01*
X99997917Y-92785428D01*
X100136389Y-93119729D01*
X100366984Y-93175410D01*
X101086395Y-92456000D01*
X101445605Y-92456000D01*
X102165016Y-93175410D01*
X102395611Y-93119729D01*
X102563622Y-92636922D01*
X102534083Y-92126572D01*
X102395611Y-91792271D01*
X102165016Y-91736590D01*
X101445605Y-92456000D01*
X101086395Y-92456000D01*
X100366984Y-91736590D01*
X100136389Y-91792271D01*
X99968378Y-92275078D01*
X97563440Y-92275078D01*
X97563440Y-91806000D01*
X97519162Y-91570683D01*
X97510347Y-91556984D01*
X100546590Y-91556984D01*
X101266000Y-92276395D01*
X101985410Y-91556984D01*
X101929729Y-91326389D01*
X101446922Y-91158378D01*
X100936572Y-91187917D01*
X100602271Y-91326389D01*
X100546590Y-91556984D01*
X97510347Y-91556984D01*
X97380090Y-91354559D01*
X97167890Y-91209569D01*
X96916000Y-91158560D01*
X95616000Y-91158560D01*
X95380683Y-91202838D01*
X95164559Y-91341910D01*
X95019569Y-91554110D01*
X94968560Y-91806000D01*
X93651868Y-91806000D01*
X96611868Y-88846000D01*
X101346000Y-88846000D01*
X101665541Y-88782439D01*
X101825739Y-88675398D01*
X102128943Y-88550117D01*
X102392192Y-88287327D01*
X102534838Y-87943799D01*
X102535162Y-87571833D01*
X102393117Y-87228057D01*
X102130327Y-86964808D01*
X101786799Y-86822162D01*
X101414833Y-86821838D01*
X101071057Y-86963883D01*
X100858570Y-87176000D01*
X96266000Y-87176000D01*
X95946459Y-87239561D01*
X95827262Y-87319206D01*
X96408668Y-86737800D01*
X98327966Y-86737800D01*
X98568401Y-86837638D01*
X98940367Y-86837962D01*
X99284143Y-86695917D01*
X99547392Y-86433127D01*
X99690038Y-86089599D01*
X99690362Y-85717633D01*
X99548317Y-85373857D01*
X99285527Y-85110608D01*
X98941999Y-84967962D01*
X98570033Y-84967638D01*
X98327622Y-85067800D01*
X96062800Y-85067800D01*
X95743259Y-85131361D01*
X95548394Y-85261566D01*
X95472366Y-85312366D01*
X86023566Y-94761166D01*
X85842561Y-95032059D01*
X85779000Y-95351600D01*
X85779000Y-97938220D01*
X85563946Y-98081914D01*
X85344000Y-98411087D01*
X85124054Y-98081914D01*
X84642285Y-97760007D01*
X84074000Y-97646968D01*
X83505715Y-97760007D01*
X83023946Y-98081914D01*
X82804000Y-98411087D01*
X82584054Y-98081914D01*
X82369000Y-97938220D01*
X82369000Y-97754868D01*
X82895868Y-97228000D01*
X83773766Y-97228000D01*
X84014201Y-97327838D01*
X84386167Y-97328162D01*
X84729943Y-97186117D01*
X84993192Y-96923327D01*
X85135838Y-96579799D01*
X85136162Y-96207833D01*
X84994117Y-95864057D01*
X84731327Y-95600808D01*
X84387799Y-95458162D01*
X84015833Y-95457838D01*
X83773422Y-95558000D01*
X82550000Y-95558000D01*
X82230459Y-95621561D01*
X81981150Y-95788144D01*
X81959566Y-95802566D01*
X80943566Y-96818566D01*
X80762561Y-97089459D01*
X80699000Y-97409000D01*
X80699000Y-97938220D01*
X80483946Y-98081914D01*
X80269347Y-98403085D01*
X79886045Y-97975336D01*
X79363260Y-97724447D01*
X79350890Y-97722524D01*
X79121000Y-97843845D01*
X79121000Y-99187000D01*
X79141000Y-99187000D01*
X79141000Y-99441000D01*
X79121000Y-99441000D01*
X79121000Y-100784155D01*
X79350890Y-100905476D01*
X79363260Y-100903553D01*
X79886045Y-100652664D01*
X80269347Y-100224915D01*
X80483946Y-100546086D01*
X80965715Y-100867993D01*
X81534000Y-100981032D01*
X82102285Y-100867993D01*
X82584054Y-100546086D01*
X82804000Y-100216913D01*
X83023946Y-100546086D01*
X83239000Y-100689780D01*
X83239000Y-101346000D01*
X83302561Y-101665541D01*
X83447813Y-101882926D01*
X83483566Y-101936434D01*
X84626566Y-103079434D01*
X84897459Y-103260439D01*
X85217000Y-103324000D01*
X91949758Y-103324000D01*
X91790808Y-103482673D01*
X91648162Y-103826201D01*
X91647838Y-104198167D01*
X91789883Y-104541943D01*
X92052673Y-104805192D01*
X92396201Y-104947838D01*
X92768167Y-104948162D01*
X93010578Y-104848000D01*
X103124000Y-104848000D01*
X103443541Y-104784439D01*
X103714434Y-104603434D01*
X107152868Y-101165000D01*
X107463220Y-101165000D01*
X107606914Y-101380054D01*
X108088683Y-101701961D01*
X108656968Y-101815000D01*
X109021032Y-101815000D01*
X109589317Y-101701961D01*
X110071086Y-101380054D01*
X110392993Y-100898285D01*
X110506032Y-100330000D01*
X110392993Y-99761715D01*
X110071086Y-99279946D01*
X109741913Y-99060000D01*
X110071086Y-98840054D01*
X110323960Y-98461600D01*
X110445434Y-98380434D01*
X112985434Y-95840434D01*
X113053210Y-95739000D01*
X113166439Y-95569541D01*
X113230000Y-95250000D01*
X113230000Y-69850000D01*
X122411968Y-69850000D01*
X122525007Y-70418285D01*
X122846914Y-70900054D01*
X123176087Y-71120000D01*
X122846914Y-71339946D01*
X122525007Y-71821715D01*
X122411968Y-72390000D01*
X122525007Y-72958285D01*
X122846914Y-73440054D01*
X123176087Y-73660000D01*
X122846914Y-73879946D01*
X122525007Y-74361715D01*
X122411968Y-74930000D01*
X122525007Y-75498285D01*
X122846914Y-75980054D01*
X123176087Y-76200000D01*
X122846914Y-76419946D01*
X122525007Y-76901715D01*
X122411968Y-77470000D01*
X122525007Y-78038285D01*
X122846914Y-78520054D01*
X123176087Y-78740000D01*
X122846914Y-78959946D01*
X122525007Y-79441715D01*
X122411968Y-80010000D01*
X122525007Y-80578285D01*
X122846914Y-81060054D01*
X123176087Y-81280000D01*
X122846914Y-81499946D01*
X122525007Y-81981715D01*
X122411968Y-82550000D01*
X122525007Y-83118285D01*
X122846914Y-83600054D01*
X123176087Y-83820000D01*
X122846914Y-84039946D01*
X122525007Y-84521715D01*
X122411968Y-85090000D01*
X122525007Y-85658285D01*
X122846914Y-86140054D01*
X123176087Y-86360000D01*
X122846914Y-86579946D01*
X122525007Y-87061715D01*
X122411968Y-87630000D01*
X122525007Y-88198285D01*
X122846914Y-88680054D01*
X123176087Y-88900000D01*
X122846914Y-89119946D01*
X122525007Y-89601715D01*
X122411968Y-90170000D01*
X122525007Y-90738285D01*
X122846914Y-91220054D01*
X123176087Y-91440000D01*
X122846914Y-91659946D01*
X122525007Y-92141715D01*
X122411968Y-92710000D01*
X122525007Y-93278285D01*
X122846914Y-93760054D01*
X123176087Y-93980000D01*
X122846914Y-94199946D01*
X122525007Y-94681715D01*
X122411968Y-95250000D01*
X122525007Y-95818285D01*
X122846914Y-96300054D01*
X123176087Y-96520000D01*
X122846914Y-96739946D01*
X122525007Y-97221715D01*
X122411968Y-97790000D01*
X122525007Y-98358285D01*
X122846914Y-98840054D01*
X123176087Y-99060000D01*
X122846914Y-99279946D01*
X122525007Y-99761715D01*
X122411968Y-100330000D01*
X122525007Y-100898285D01*
X122846914Y-101380054D01*
X123328683Y-101701961D01*
X123896968Y-101815000D01*
X124261032Y-101815000D01*
X124829317Y-101701961D01*
X125311086Y-101380054D01*
X125632993Y-100898285D01*
X125697812Y-100572414D01*
X128845026Y-100572414D01*
X129093338Y-101173375D01*
X129552727Y-101633566D01*
X130153253Y-101882926D01*
X130803494Y-101883494D01*
X131404455Y-101635182D01*
X131618807Y-101421203D01*
X134061463Y-101421203D01*
X134160062Y-101688005D01*
X134769602Y-101914441D01*
X135419397Y-101890381D01*
X135907978Y-101688005D01*
X136006577Y-101421203D01*
X135034020Y-100448645D01*
X134061463Y-101421203D01*
X131618807Y-101421203D01*
X131864646Y-101175793D01*
X132114006Y-100575267D01*
X132114504Y-100004622D01*
X133388619Y-100004622D01*
X133412679Y-100654417D01*
X133615055Y-101142998D01*
X133881857Y-101241597D01*
X134854415Y-100269040D01*
X135213625Y-100269040D01*
X136186183Y-101241597D01*
X136452985Y-101142998D01*
X136679421Y-100533458D01*
X136655361Y-99883663D01*
X136452985Y-99395082D01*
X136186183Y-99296483D01*
X135213625Y-100269040D01*
X134854415Y-100269040D01*
X133881857Y-99296483D01*
X133615055Y-99395082D01*
X133388619Y-100004622D01*
X132114504Y-100004622D01*
X132114574Y-99925026D01*
X131866262Y-99324065D01*
X131659436Y-99116877D01*
X134061463Y-99116877D01*
X135034020Y-100089435D01*
X136006577Y-99116877D01*
X135907978Y-98850075D01*
X135298438Y-98623639D01*
X134648643Y-98647699D01*
X134160062Y-98850075D01*
X134061463Y-99116877D01*
X131659436Y-99116877D01*
X131406873Y-98863874D01*
X130806347Y-98614514D01*
X130156106Y-98613946D01*
X129555145Y-98862258D01*
X129094954Y-99321647D01*
X128845594Y-99922173D01*
X128845026Y-100572414D01*
X125697812Y-100572414D01*
X125746032Y-100330000D01*
X125632993Y-99761715D01*
X125311086Y-99279946D01*
X124981913Y-99060000D01*
X125311086Y-98840054D01*
X125632993Y-98358285D01*
X125746032Y-97790000D01*
X125632993Y-97221715D01*
X125311086Y-96739946D01*
X124981913Y-96520000D01*
X125311086Y-96300054D01*
X125632993Y-95818285D01*
X125746032Y-95250000D01*
X125632993Y-94681715D01*
X125311086Y-94199946D01*
X124981913Y-93980000D01*
X125311086Y-93760054D01*
X125454780Y-93545000D01*
X129089878Y-93545000D01*
X129093338Y-93553375D01*
X129552727Y-94013566D01*
X130153253Y-94262926D01*
X130803494Y-94263494D01*
X131404455Y-94015182D01*
X131864646Y-93555793D01*
X131902878Y-93463720D01*
X133602117Y-93463720D01*
X133647558Y-93573695D01*
X134106947Y-94033886D01*
X134707473Y-94283246D01*
X135357714Y-94283814D01*
X135744454Y-94124016D01*
X140758590Y-94124016D01*
X140814271Y-94354611D01*
X141297078Y-94522622D01*
X141807428Y-94493083D01*
X142141729Y-94354611D01*
X142197410Y-94124016D01*
X141478000Y-93404605D01*
X140758590Y-94124016D01*
X135744454Y-94124016D01*
X135958675Y-94035502D01*
X136418866Y-93576113D01*
X136639786Y-93044078D01*
X140180378Y-93044078D01*
X140209917Y-93554428D01*
X140348389Y-93888729D01*
X140578984Y-93944410D01*
X141298395Y-93225000D01*
X141657605Y-93225000D01*
X142377016Y-93944410D01*
X142607611Y-93888729D01*
X142775622Y-93405922D01*
X142746083Y-92895572D01*
X142607611Y-92561271D01*
X142377016Y-92505590D01*
X141657605Y-93225000D01*
X141298395Y-93225000D01*
X140578984Y-92505590D01*
X140348389Y-92561271D01*
X140180378Y-93044078D01*
X136639786Y-93044078D01*
X136668226Y-92975587D01*
X136668793Y-92325984D01*
X140758590Y-92325984D01*
X141478000Y-93045395D01*
X142197410Y-92325984D01*
X142141729Y-92095389D01*
X141658922Y-91927378D01*
X141148572Y-91956917D01*
X140814271Y-92095389D01*
X140758590Y-92325984D01*
X136668793Y-92325984D01*
X136668794Y-92325346D01*
X136420482Y-91724385D01*
X135961093Y-91264194D01*
X135360567Y-91014834D01*
X134710326Y-91014266D01*
X134109365Y-91262578D01*
X133649174Y-91721967D01*
X133619380Y-91793720D01*
X131903307Y-91793720D01*
X131866262Y-91704065D01*
X131406873Y-91243874D01*
X130806347Y-90994514D01*
X130156106Y-90993946D01*
X129555145Y-91242258D01*
X129094954Y-91701647D01*
X129022972Y-91875000D01*
X125454780Y-91875000D01*
X125311086Y-91659946D01*
X124981913Y-91440000D01*
X125311086Y-91220054D01*
X125632993Y-90738285D01*
X125746032Y-90170000D01*
X125632993Y-89601715D01*
X125311086Y-89119946D01*
X124981913Y-88900000D01*
X125311086Y-88680054D01*
X125632993Y-88198285D01*
X125746032Y-87630000D01*
X125632993Y-87061715D01*
X125311086Y-86579946D01*
X124981913Y-86360000D01*
X125311086Y-86140054D01*
X125632993Y-85658285D01*
X125746032Y-85090000D01*
X125743049Y-85075000D01*
X140180560Y-85075000D01*
X140180560Y-86375000D01*
X140224838Y-86610317D01*
X140363910Y-86826441D01*
X140576110Y-86971431D01*
X140828000Y-87022440D01*
X142128000Y-87022440D01*
X142363317Y-86978162D01*
X142579441Y-86839090D01*
X142724431Y-86626890D01*
X142775440Y-86375000D01*
X142775440Y-85075000D01*
X142731162Y-84839683D01*
X142592090Y-84623559D01*
X142379890Y-84478569D01*
X142128000Y-84427560D01*
X140828000Y-84427560D01*
X140592683Y-84471838D01*
X140376559Y-84610910D01*
X140231569Y-84823110D01*
X140180560Y-85075000D01*
X125743049Y-85075000D01*
X125632993Y-84521715D01*
X125311086Y-84039946D01*
X124981913Y-83820000D01*
X125311086Y-83600054D01*
X125632993Y-83118285D01*
X125658676Y-82989167D01*
X140542838Y-82989167D01*
X140684883Y-83332943D01*
X140947673Y-83596192D01*
X141291201Y-83738838D01*
X141663167Y-83739162D01*
X142006943Y-83597117D01*
X142270192Y-83334327D01*
X142412838Y-82990799D01*
X142413162Y-82618833D01*
X142271117Y-82275057D01*
X142008327Y-82011808D01*
X141664799Y-81869162D01*
X141292833Y-81868838D01*
X140949057Y-82010883D01*
X140685808Y-82273673D01*
X140543162Y-82617201D01*
X140542838Y-82989167D01*
X125658676Y-82989167D01*
X125746032Y-82550000D01*
X125632993Y-81981715D01*
X125311086Y-81499946D01*
X124981913Y-81280000D01*
X125311086Y-81060054D01*
X125632993Y-80578285D01*
X125746032Y-80010000D01*
X125632993Y-79441715D01*
X125311086Y-78959946D01*
X124981913Y-78740000D01*
X125311086Y-78520054D01*
X125632993Y-78038285D01*
X125746032Y-77470000D01*
X125632993Y-76901715D01*
X125311086Y-76419946D01*
X124981913Y-76200000D01*
X125311086Y-75980054D01*
X125632993Y-75498285D01*
X125746032Y-74930000D01*
X125632993Y-74361715D01*
X125375268Y-73976000D01*
X131240560Y-73976000D01*
X131240560Y-75376000D01*
X131284838Y-75611317D01*
X131423910Y-75827441D01*
X131636110Y-75972431D01*
X131888000Y-76023440D01*
X133288000Y-76023440D01*
X133523317Y-75979162D01*
X133739441Y-75840090D01*
X133884431Y-75627890D01*
X133935440Y-75376000D01*
X133935440Y-73976000D01*
X133891162Y-73740683D01*
X133752090Y-73524559D01*
X133539890Y-73379569D01*
X133288000Y-73328560D01*
X131888000Y-73328560D01*
X131652683Y-73372838D01*
X131436559Y-73511910D01*
X131291569Y-73724110D01*
X131240560Y-73976000D01*
X125375268Y-73976000D01*
X125311086Y-73879946D01*
X124981913Y-73660000D01*
X125311086Y-73440054D01*
X125503557Y-73152000D01*
X139159655Y-73152000D01*
X139273729Y-73725489D01*
X139598585Y-74211670D01*
X139612913Y-74221243D01*
X139591683Y-74225238D01*
X139375559Y-74364310D01*
X139230569Y-74576510D01*
X139179560Y-74828400D01*
X139179560Y-76555600D01*
X139223838Y-76790917D01*
X139362910Y-77007041D01*
X139575110Y-77152031D01*
X139827000Y-77203040D01*
X141859000Y-77203040D01*
X142094317Y-77158762D01*
X142310441Y-77019690D01*
X142455431Y-76807490D01*
X142506440Y-76555600D01*
X142506440Y-74828400D01*
X142462162Y-74593083D01*
X142323090Y-74376959D01*
X142110890Y-74231969D01*
X142069561Y-74223600D01*
X142087415Y-74211670D01*
X142412271Y-73725489D01*
X142526345Y-73152000D01*
X142412271Y-72578511D01*
X142087415Y-72092330D01*
X141777931Y-71885539D01*
X142193732Y-71514036D01*
X142447709Y-70986791D01*
X142450358Y-70971026D01*
X142329217Y-70739000D01*
X140970000Y-70739000D01*
X140970000Y-70759000D01*
X140716000Y-70759000D01*
X140716000Y-70739000D01*
X139356783Y-70739000D01*
X139235642Y-70971026D01*
X139238291Y-70986791D01*
X139492268Y-71514036D01*
X139908069Y-71885539D01*
X139598585Y-72092330D01*
X139273729Y-72578511D01*
X139159655Y-73152000D01*
X125503557Y-73152000D01*
X125632993Y-72958285D01*
X125746032Y-72390000D01*
X125632993Y-71821715D01*
X125311086Y-71339946D01*
X124981913Y-71120000D01*
X125311086Y-70900054D01*
X125632993Y-70418285D01*
X125746032Y-69850000D01*
X125632993Y-69281715D01*
X125311086Y-68799946D01*
X124989915Y-68585347D01*
X125417664Y-68202045D01*
X125668553Y-67679260D01*
X125670476Y-67666890D01*
X125549155Y-67437000D01*
X124206000Y-67437000D01*
X124206000Y-67457000D01*
X123952000Y-67457000D01*
X123952000Y-67437000D01*
X122608845Y-67437000D01*
X122487524Y-67666890D01*
X122489447Y-67679260D01*
X122740336Y-68202045D01*
X123168085Y-68585347D01*
X122846914Y-68799946D01*
X122525007Y-69281715D01*
X122411968Y-69850000D01*
X113230000Y-69850000D01*
X113230000Y-66467234D01*
X113329838Y-66226799D01*
X113330162Y-65854833D01*
X113188117Y-65511057D01*
X112925327Y-65247808D01*
X112581799Y-65105162D01*
X112225017Y-65104851D01*
X118836868Y-58493000D01*
X123066835Y-58493000D01*
X122846914Y-58639946D01*
X122525007Y-59121715D01*
X122411968Y-59690000D01*
X122525007Y-60258285D01*
X122846914Y-60740054D01*
X123176087Y-60960000D01*
X122846914Y-61179946D01*
X122525007Y-61661715D01*
X122411968Y-62230000D01*
X122525007Y-62798285D01*
X122846914Y-63280054D01*
X123176087Y-63500000D01*
X122846914Y-63719946D01*
X122525007Y-64201715D01*
X122411968Y-64770000D01*
X122525007Y-65338285D01*
X122846914Y-65820054D01*
X123168085Y-66034653D01*
X122740336Y-66417955D01*
X122489447Y-66940740D01*
X122487524Y-66953110D01*
X122608845Y-67183000D01*
X123952000Y-67183000D01*
X123952000Y-67163000D01*
X124206000Y-67163000D01*
X124206000Y-67183000D01*
X125549155Y-67183000D01*
X125670476Y-66953110D01*
X125668553Y-66940740D01*
X125417664Y-66417955D01*
X124989915Y-66034653D01*
X125311086Y-65820054D01*
X125450587Y-65611275D01*
X131832331Y-65611275D01*
X131894169Y-65847042D01*
X132395122Y-66023419D01*
X132925440Y-65994664D01*
X133281831Y-65847042D01*
X133343669Y-65611275D01*
X132588000Y-64855605D01*
X131832331Y-65611275D01*
X125450587Y-65611275D01*
X125632993Y-65338285D01*
X125746032Y-64770000D01*
X125688969Y-64483122D01*
X131240581Y-64483122D01*
X131269336Y-65013440D01*
X131416958Y-65369831D01*
X131652725Y-65431669D01*
X132408395Y-64676000D01*
X132767605Y-64676000D01*
X133523275Y-65431669D01*
X133759042Y-65369831D01*
X133935419Y-64868878D01*
X133906664Y-64338560D01*
X133759042Y-63982169D01*
X133523275Y-63920331D01*
X132767605Y-64676000D01*
X132408395Y-64676000D01*
X131652725Y-63920331D01*
X131416958Y-63982169D01*
X131240581Y-64483122D01*
X125688969Y-64483122D01*
X125632993Y-64201715D01*
X125324971Y-63740725D01*
X131832331Y-63740725D01*
X132588000Y-64496395D01*
X133343669Y-63740725D01*
X133281831Y-63504958D01*
X132780878Y-63328581D01*
X132250560Y-63357336D01*
X131894169Y-63504958D01*
X131832331Y-63740725D01*
X125324971Y-63740725D01*
X125311086Y-63719946D01*
X124981913Y-63500000D01*
X125311086Y-63280054D01*
X125632993Y-62798285D01*
X125746032Y-62230000D01*
X125632993Y-61661715D01*
X125311086Y-61179946D01*
X124981913Y-60960000D01*
X125311086Y-60740054D01*
X125632993Y-60258285D01*
X125746032Y-59690000D01*
X125632993Y-59121715D01*
X125311086Y-58639946D01*
X125091165Y-58493000D01*
X129956132Y-58493000D01*
X139221951Y-67758819D01*
X139159655Y-68072000D01*
X139273729Y-68645489D01*
X139598585Y-69131670D01*
X139908069Y-69338461D01*
X139492268Y-69709964D01*
X139238291Y-70237209D01*
X139235642Y-70252974D01*
X139356783Y-70485000D01*
X140716000Y-70485000D01*
X140716000Y-70465000D01*
X140970000Y-70465000D01*
X140970000Y-70485000D01*
X142329217Y-70485000D01*
X142450358Y-70252974D01*
X142447709Y-70237209D01*
X142193732Y-69709964D01*
X141777931Y-69338461D01*
X142087415Y-69131670D01*
X142412271Y-68645489D01*
X142526345Y-68072000D01*
X142412271Y-67498511D01*
X142087415Y-67012330D01*
X141772634Y-66802000D01*
X142087415Y-66591670D01*
X142412271Y-66105489D01*
X142526345Y-65532000D01*
X142412271Y-64958511D01*
X142087415Y-64472330D01*
X141772634Y-64262000D01*
X142087415Y-64051670D01*
X142412271Y-63565489D01*
X142526345Y-62992000D01*
X142412271Y-62418511D01*
X142087415Y-61932330D01*
X141601234Y-61607474D01*
X141027745Y-61493400D01*
X140658255Y-61493400D01*
X140084766Y-61607474D01*
X139598585Y-61932330D01*
X139273729Y-62418511D01*
X139192375Y-62827507D01*
X134535232Y-58170364D01*
X136614414Y-58170364D01*
X137128663Y-59414943D01*
X138080048Y-60367990D01*
X139323728Y-60884411D01*
X140670364Y-60885586D01*
X141914943Y-60371337D01*
X142867990Y-59419952D01*
X143384411Y-58176272D01*
X143385586Y-56829636D01*
X142871337Y-55585057D01*
X141919952Y-54632010D01*
X140676272Y-54115589D01*
X139329636Y-54114414D01*
X138085057Y-54628663D01*
X137132010Y-55580048D01*
X136615589Y-56823728D01*
X136614414Y-58170364D01*
X134535232Y-58170364D01*
X132543434Y-56178566D01*
X132292179Y-56010683D01*
X132272541Y-55997561D01*
X131953000Y-55934000D01*
X116840000Y-55934000D01*
X116520460Y-55997560D01*
X116249566Y-56178566D01*
X113329963Y-59098169D01*
X113330162Y-58869833D01*
X113188117Y-58526057D01*
X112925327Y-58262808D01*
X112683090Y-58162222D01*
X111080434Y-56559566D01*
X110809541Y-56378561D01*
X110490000Y-56315000D01*
X88900000Y-56315000D01*
X88580459Y-56378561D01*
X88309566Y-56559566D01*
X85769566Y-59099566D01*
X85588561Y-59370459D01*
X85525000Y-59690000D01*
X85525000Y-61362220D01*
X85309946Y-61505914D01*
X85090000Y-61835087D01*
X84870054Y-61505914D01*
X84388285Y-61184007D01*
X83820000Y-61070968D01*
X83251715Y-61184007D01*
X82769946Y-61505914D01*
X82550000Y-61835087D01*
X82330054Y-61505914D01*
X81848285Y-61184007D01*
X81280000Y-61070968D01*
X80711715Y-61184007D01*
X80229946Y-61505914D01*
X80010000Y-61835087D01*
X79790054Y-61505914D01*
X79308285Y-61184007D01*
X78740000Y-61070968D01*
X78171715Y-61184007D01*
X77689946Y-61505914D01*
X77470000Y-61835087D01*
X77250054Y-61505914D01*
X76768285Y-61184007D01*
X76200000Y-61070968D01*
X75631715Y-61184007D01*
X75149946Y-61505914D01*
X74935347Y-61827085D01*
X74552045Y-61399336D01*
X74029260Y-61148447D01*
X74016890Y-61146524D01*
X73787000Y-61267845D01*
X73787000Y-62611000D01*
X73807000Y-62611000D01*
X73807000Y-62865000D01*
X73787000Y-62865000D01*
X73787000Y-64208155D01*
X74016890Y-64329476D01*
X74029260Y-64327553D01*
X74552045Y-64076664D01*
X74935347Y-63648915D01*
X75075748Y-63859041D01*
X74310788Y-64624000D01*
X67929211Y-64624000D01*
X65861180Y-62555968D01*
X69635000Y-62555968D01*
X69635000Y-62920032D01*
X69748039Y-63488317D01*
X70069946Y-63970086D01*
X70551715Y-64291993D01*
X71120000Y-64405032D01*
X71688285Y-64291993D01*
X72170054Y-63970086D01*
X72384653Y-63648915D01*
X72767955Y-64076664D01*
X73290740Y-64327553D01*
X73303110Y-64329476D01*
X73533000Y-64208155D01*
X73533000Y-62865000D01*
X73513000Y-62865000D01*
X73513000Y-62611000D01*
X73533000Y-62611000D01*
X73533000Y-61267845D01*
X73303110Y-61146524D01*
X73290740Y-61148447D01*
X72767955Y-61399336D01*
X72384653Y-61827085D01*
X72170054Y-61505914D01*
X71688285Y-61184007D01*
X71120000Y-61070968D01*
X70551715Y-61184007D01*
X70069946Y-61505914D01*
X69748039Y-61987683D01*
X69635000Y-62555968D01*
X65861180Y-62555968D01*
X65438356Y-62133144D01*
X65102577Y-61908785D01*
X64706500Y-61829999D01*
X64706495Y-61830000D01*
X63870248Y-61830000D01*
X63832652Y-61630193D01*
X63693580Y-61414069D01*
X63481380Y-61269079D01*
X63229490Y-61218070D01*
X61230510Y-61218070D01*
X60995193Y-61262348D01*
X60779069Y-61401420D01*
X60634079Y-61613620D01*
X60583070Y-61865510D01*
X55320000Y-61865510D01*
X55320000Y-58170364D01*
X56614414Y-58170364D01*
X57128663Y-59414943D01*
X58080048Y-60367990D01*
X59323728Y-60884411D01*
X60670364Y-60885586D01*
X61914943Y-60371337D01*
X62867990Y-59419952D01*
X63384411Y-58176272D01*
X63385586Y-56829636D01*
X63144433Y-56246000D01*
X69568560Y-56246000D01*
X69568560Y-57546000D01*
X69612838Y-57781317D01*
X69751910Y-57997441D01*
X69964110Y-58142431D01*
X70216000Y-58193440D01*
X71516000Y-58193440D01*
X71751317Y-58149162D01*
X71967441Y-58010090D01*
X72112431Y-57797890D01*
X72113012Y-57795016D01*
X75146590Y-57795016D01*
X75202271Y-58025611D01*
X75685078Y-58193622D01*
X76195428Y-58164083D01*
X76529729Y-58025611D01*
X76585410Y-57795016D01*
X75866000Y-57075605D01*
X75146590Y-57795016D01*
X72113012Y-57795016D01*
X72163440Y-57546000D01*
X72163440Y-56715078D01*
X74568378Y-56715078D01*
X74597917Y-57225428D01*
X74736389Y-57559729D01*
X74966984Y-57615410D01*
X75686395Y-56896000D01*
X76045605Y-56896000D01*
X76765016Y-57615410D01*
X76995611Y-57559729D01*
X77163622Y-57076922D01*
X77134083Y-56566572D01*
X76995611Y-56232271D01*
X76765016Y-56176590D01*
X76045605Y-56896000D01*
X75686395Y-56896000D01*
X74966984Y-56176590D01*
X74736389Y-56232271D01*
X74568378Y-56715078D01*
X72163440Y-56715078D01*
X72163440Y-56246000D01*
X72119162Y-56010683D01*
X72110347Y-55996984D01*
X75146590Y-55996984D01*
X75866000Y-56716395D01*
X76585410Y-55996984D01*
X76529729Y-55766389D01*
X76046922Y-55598378D01*
X75536572Y-55627917D01*
X75202271Y-55766389D01*
X75146590Y-55996984D01*
X72110347Y-55996984D01*
X71980090Y-55794559D01*
X71767890Y-55649569D01*
X71516000Y-55598560D01*
X70216000Y-55598560D01*
X69980683Y-55642838D01*
X69764559Y-55781910D01*
X69619569Y-55994110D01*
X69568560Y-56246000D01*
X63144433Y-56246000D01*
X62871337Y-55585057D01*
X61919952Y-54632010D01*
X60676272Y-54115589D01*
X59329636Y-54114414D01*
X58085057Y-54628663D01*
X57132010Y-55580048D01*
X56615589Y-56823728D01*
X56614414Y-58170364D01*
X55320000Y-58170364D01*
X55320000Y-54050000D01*
X145340000Y-54050000D01*
X145340000Y-138990000D01*
X145340000Y-138990000D01*
G37*
X145340000Y-138990000D02*
X55320000Y-138990000D01*
X55320000Y-133170364D01*
X56614414Y-133170364D01*
X57128663Y-134414943D01*
X58080048Y-135367990D01*
X59323728Y-135884411D01*
X60670364Y-135885586D01*
X61914943Y-135371337D01*
X62867990Y-134419952D01*
X63181058Y-133666000D01*
X65454560Y-133666000D01*
X65454560Y-135066000D01*
X65498838Y-135301317D01*
X65637910Y-135517441D01*
X65850110Y-135662431D01*
X66102000Y-135713440D01*
X67502000Y-135713440D01*
X67737317Y-135669162D01*
X67953441Y-135530090D01*
X68098431Y-135317890D01*
X68101795Y-135301275D01*
X76046331Y-135301275D01*
X76108169Y-135537042D01*
X76609122Y-135713419D01*
X77139440Y-135684664D01*
X77495831Y-135537042D01*
X77557669Y-135301275D01*
X76802000Y-134545605D01*
X76046331Y-135301275D01*
X68101795Y-135301275D01*
X68149440Y-135066000D01*
X68149440Y-134173122D01*
X75454581Y-134173122D01*
X75483336Y-134703440D01*
X75630958Y-135059831D01*
X75866725Y-135121669D01*
X76622395Y-134366000D01*
X76981605Y-134366000D01*
X77737275Y-135121669D01*
X77973042Y-135059831D01*
X78149419Y-134558878D01*
X78120664Y-134028560D01*
X77973042Y-133672169D01*
X77737275Y-133610331D01*
X76981605Y-134366000D01*
X76622395Y-134366000D01*
X75866725Y-133610331D01*
X75630958Y-133672169D01*
X75454581Y-134173122D01*
X68149440Y-134173122D01*
X68149440Y-133666000D01*
X68105170Y-133430725D01*
X76046331Y-133430725D01*
X76802000Y-134186395D01*
X77557669Y-133430725D01*
X77495831Y-133194958D01*
X76994878Y-133018581D01*
X76464560Y-133047336D01*
X76108169Y-133194958D01*
X76046331Y-133430725D01*
X68105170Y-133430725D01*
X68105162Y-133430683D01*
X67966090Y-133214559D01*
X67753890Y-133069569D01*
X67502000Y-133018560D01*
X66102000Y-133018560D01*
X65866683Y-133062838D01*
X65650559Y-133201910D01*
X65505569Y-133414110D01*
X65454560Y-133666000D01*
X63181058Y-133666000D01*
X63384411Y-133176272D01*
X63385586Y-131829636D01*
X63136500Y-131226800D01*
X82598760Y-131226800D01*
X82598760Y-132526800D01*
X82643038Y-132762117D01*
X82782110Y-132978241D01*
X82994310Y-133123231D01*
X83246200Y-133174240D01*
X84546200Y-133174240D01*
X84781517Y-133129962D01*
X84997641Y-132990890D01*
X85142631Y-132778690D01*
X85143212Y-132775816D01*
X88176790Y-132775816D01*
X88232471Y-133006411D01*
X88715278Y-133174422D01*
X89225628Y-133144883D01*
X89559929Y-133006411D01*
X89615610Y-132775816D01*
X88896200Y-132056405D01*
X88176790Y-132775816D01*
X85143212Y-132775816D01*
X85193640Y-132526800D01*
X85193640Y-131695878D01*
X87598578Y-131695878D01*
X87628117Y-132206228D01*
X87766589Y-132540529D01*
X87997184Y-132596210D01*
X88716595Y-131876800D01*
X89075805Y-131876800D01*
X89795216Y-132596210D01*
X90025811Y-132540529D01*
X90193822Y-132057722D01*
X90164283Y-131547372D01*
X90031498Y-131226800D01*
X94765360Y-131226800D01*
X94765360Y-132526800D01*
X94809638Y-132762117D01*
X94948710Y-132978241D01*
X95160910Y-133123231D01*
X95412800Y-133174240D01*
X96712800Y-133174240D01*
X96948117Y-133129962D01*
X97164241Y-132990890D01*
X97309231Y-132778690D01*
X97309812Y-132775816D01*
X100343390Y-132775816D01*
X100399071Y-133006411D01*
X100881878Y-133174422D01*
X100951988Y-133170364D01*
X136614414Y-133170364D01*
X137128663Y-134414943D01*
X138080048Y-135367990D01*
X139323728Y-135884411D01*
X140670364Y-135885586D01*
X141914943Y-135371337D01*
X142867990Y-134419952D01*
X143384411Y-133176272D01*
X143385586Y-131829636D01*
X142871337Y-130585057D01*
X141919952Y-129632010D01*
X140676272Y-129115589D01*
X139329636Y-129114414D01*
X138085057Y-129628663D01*
X137132010Y-130580048D01*
X136615589Y-131823728D01*
X136614414Y-133170364D01*
X100951988Y-133170364D01*
X101392228Y-133144883D01*
X101726529Y-133006411D01*
X101782210Y-132775816D01*
X101062800Y-132056405D01*
X100343390Y-132775816D01*
X97309812Y-132775816D01*
X97360240Y-132526800D01*
X97360240Y-131695878D01*
X99765178Y-131695878D01*
X99794717Y-132206228D01*
X99933189Y-132540529D01*
X100163784Y-132596210D01*
X100883195Y-131876800D01*
X101242405Y-131876800D01*
X101961816Y-132596210D01*
X102192411Y-132540529D01*
X102360422Y-132057722D01*
X102330883Y-131547372D01*
X102192411Y-131213071D01*
X101961816Y-131157390D01*
X101242405Y-131876800D01*
X100883195Y-131876800D01*
X100163784Y-131157390D01*
X99933189Y-131213071D01*
X99765178Y-131695878D01*
X97360240Y-131695878D01*
X97360240Y-131226800D01*
X97315962Y-130991483D01*
X97307147Y-130977784D01*
X100343390Y-130977784D01*
X101062800Y-131697195D01*
X101782210Y-130977784D01*
X101726529Y-130747189D01*
X101243722Y-130579178D01*
X100733372Y-130608717D01*
X100399071Y-130747189D01*
X100343390Y-130977784D01*
X97307147Y-130977784D01*
X97176890Y-130775359D01*
X96964690Y-130630369D01*
X96712800Y-130579360D01*
X95412800Y-130579360D01*
X95177483Y-130623638D01*
X94961359Y-130762710D01*
X94816369Y-130974910D01*
X94765360Y-131226800D01*
X90031498Y-131226800D01*
X90025811Y-131213071D01*
X89795216Y-131157390D01*
X89075805Y-131876800D01*
X88716595Y-131876800D01*
X87997184Y-131157390D01*
X87766589Y-131213071D01*
X87598578Y-131695878D01*
X85193640Y-131695878D01*
X85193640Y-131226800D01*
X85149362Y-130991483D01*
X85140547Y-130977784D01*
X88176790Y-130977784D01*
X88896200Y-131697195D01*
X89615610Y-130977784D01*
X89559929Y-130747189D01*
X89077122Y-130579178D01*
X88566772Y-130608717D01*
X88232471Y-130747189D01*
X88176790Y-130977784D01*
X85140547Y-130977784D01*
X85010290Y-130775359D01*
X84798090Y-130630369D01*
X84546200Y-130579360D01*
X83246200Y-130579360D01*
X83010883Y-130623638D01*
X82794759Y-130762710D01*
X82649769Y-130974910D01*
X82598760Y-131226800D01*
X63136500Y-131226800D01*
X62871337Y-130585057D01*
X61919952Y-129632010D01*
X60676272Y-129115589D01*
X59329636Y-129114414D01*
X58085057Y-129628663D01*
X57132010Y-130580048D01*
X56615589Y-131823728D01*
X56614414Y-133170364D01*
X55320000Y-133170364D01*
X55320000Y-123729750D01*
X58817510Y-123729750D01*
X58817510Y-124569799D01*
X58914183Y-124803188D01*
X59092811Y-124981817D01*
X59155013Y-125007582D01*
X58941928Y-125326486D01*
X58817510Y-125951978D01*
X58817510Y-126016022D01*
X58941928Y-126641514D01*
X59296241Y-127171781D01*
X59826508Y-127526094D01*
X60452000Y-127650512D01*
X61077492Y-127526094D01*
X61607759Y-127171781D01*
X61962072Y-126641514D01*
X62086490Y-126016022D01*
X62086490Y-125951978D01*
X61962072Y-125326486D01*
X61748987Y-125007582D01*
X61811189Y-124981817D01*
X61989817Y-124803188D01*
X62086490Y-124569799D01*
X62086490Y-123729750D01*
X61927740Y-123571000D01*
X60579000Y-123571000D01*
X60579000Y-123591000D01*
X60325000Y-123591000D01*
X60325000Y-123571000D01*
X58976260Y-123571000D01*
X58817510Y-123729750D01*
X55320000Y-123729750D01*
X55320000Y-122318201D01*
X58817510Y-122318201D01*
X58817510Y-123158250D01*
X58976260Y-123317000D01*
X60325000Y-123317000D01*
X60325000Y-121968260D01*
X60579000Y-121968260D01*
X60579000Y-123317000D01*
X61927740Y-123317000D01*
X62086490Y-123158250D01*
X62086490Y-122318201D01*
X61989817Y-122084812D01*
X61811189Y-121906183D01*
X61577800Y-121809510D01*
X60737750Y-121809510D01*
X60579000Y-121968260D01*
X60325000Y-121968260D01*
X60166250Y-121809510D01*
X59326200Y-121809510D01*
X59092811Y-121906183D01*
X58914183Y-122084812D01*
X58817510Y-122318201D01*
X55320000Y-122318201D01*
X55320000Y-121682000D01*
X67844560Y-121682000D01*
X67844560Y-123682000D01*
X67888838Y-123917317D01*
X68027910Y-124133441D01*
X68240110Y-124278431D01*
X68492000Y-124329440D01*
X70192000Y-124329440D01*
X70427317Y-124285162D01*
X70643441Y-124146090D01*
X70788431Y-123933890D01*
X70801629Y-123868714D01*
X70831946Y-123914086D01*
X71313715Y-124235993D01*
X71882000Y-124349032D01*
X72450285Y-124235993D01*
X72932054Y-123914086D01*
X73152000Y-123584913D01*
X73371946Y-123914086D01*
X73853715Y-124235993D01*
X74422000Y-124349032D01*
X74990285Y-124235993D01*
X75472054Y-123914086D01*
X75793961Y-123432317D01*
X75871651Y-123041742D01*
X90730716Y-123041742D01*
X90922976Y-123588812D01*
X91309955Y-124020664D01*
X91832740Y-124271553D01*
X91845110Y-124273476D01*
X92075000Y-124152155D01*
X92075000Y-122809000D01*
X90874769Y-122809000D01*
X90730716Y-123041742D01*
X75871651Y-123041742D01*
X75907000Y-122864032D01*
X75907000Y-122499968D01*
X75871652Y-122322258D01*
X90730716Y-122322258D01*
X90874769Y-122555000D01*
X92075000Y-122555000D01*
X92075000Y-121211845D01*
X92329000Y-121211845D01*
X92329000Y-122555000D01*
X92349000Y-122555000D01*
X92349000Y-122809000D01*
X92329000Y-122809000D01*
X92329000Y-124152155D01*
X92558890Y-124273476D01*
X92571260Y-124271553D01*
X93094045Y-124020664D01*
X93477347Y-123592915D01*
X93691946Y-123914086D01*
X94173715Y-124235993D01*
X94742000Y-124349032D01*
X95310285Y-124235993D01*
X95792054Y-123914086D01*
X96006653Y-123592915D01*
X96389955Y-124020664D01*
X96912740Y-124271553D01*
X96925110Y-124273476D01*
X97155000Y-124152155D01*
X97155000Y-122809000D01*
X97409000Y-122809000D01*
X97409000Y-124152155D01*
X97638890Y-124273476D01*
X97651260Y-124271553D01*
X98174045Y-124020664D01*
X98561024Y-123588812D01*
X98753284Y-123041742D01*
X98609231Y-122809000D01*
X97409000Y-122809000D01*
X97155000Y-122809000D01*
X97135000Y-122809000D01*
X97135000Y-122555000D01*
X97155000Y-122555000D01*
X97155000Y-121211845D01*
X97409000Y-121211845D01*
X97409000Y-122555000D01*
X98609231Y-122555000D01*
X98753284Y-122322258D01*
X98561024Y-121775188D01*
X98174045Y-121343336D01*
X97651260Y-121092447D01*
X97638890Y-121090524D01*
X97409000Y-121211845D01*
X97155000Y-121211845D01*
X96925110Y-121090524D01*
X96912740Y-121092447D01*
X96389955Y-121343336D01*
X96006653Y-121771085D01*
X95792054Y-121449914D01*
X95310285Y-121128007D01*
X94742000Y-121014968D01*
X94173715Y-121128007D01*
X93691946Y-121449914D01*
X93477347Y-121771085D01*
X93094045Y-121343336D01*
X92571260Y-121092447D01*
X92558890Y-121090524D01*
X92329000Y-121211845D01*
X92075000Y-121211845D01*
X91845110Y-121090524D01*
X91832740Y-121092447D01*
X91309955Y-121343336D01*
X90922976Y-121775188D01*
X90730716Y-122322258D01*
X75871652Y-122322258D01*
X75793961Y-121931683D01*
X75472054Y-121449914D01*
X74990285Y-121128007D01*
X74422000Y-121014968D01*
X73853715Y-121128007D01*
X73371946Y-121449914D01*
X73152000Y-121779087D01*
X72932054Y-121449914D01*
X72450285Y-121128007D01*
X71882000Y-121014968D01*
X71313715Y-121128007D01*
X70831946Y-121449914D01*
X70803719Y-121492159D01*
X70795162Y-121446683D01*
X70656090Y-121230559D01*
X70443890Y-121085569D01*
X70192000Y-121034560D01*
X68492000Y-121034560D01*
X68256683Y-121078838D01*
X68040559Y-121217910D01*
X67895569Y-121430110D01*
X67844560Y-121682000D01*
X55320000Y-121682000D01*
X55320000Y-120966000D01*
X102919560Y-120966000D01*
X102919560Y-122366000D01*
X102963838Y-122601317D01*
X103102910Y-122817441D01*
X103315110Y-122962431D01*
X103567000Y-123013440D01*
X104967000Y-123013440D01*
X105202317Y-122969162D01*
X105418441Y-122830090D01*
X105563431Y-122617890D01*
X105614440Y-122366000D01*
X105614440Y-120966000D01*
X105570162Y-120730683D01*
X105431090Y-120514559D01*
X105218890Y-120369569D01*
X104967000Y-120318560D01*
X103567000Y-120318560D01*
X103331683Y-120362838D01*
X103115559Y-120501910D01*
X102970569Y-120714110D01*
X102919560Y-120966000D01*
X55320000Y-120966000D01*
X55320000Y-112601275D01*
X103511331Y-112601275D01*
X103573169Y-112837042D01*
X104074122Y-113013419D01*
X104604440Y-112984664D01*
X104960831Y-112837042D01*
X105022669Y-112601275D01*
X104267000Y-111845605D01*
X103511331Y-112601275D01*
X55320000Y-112601275D01*
X55320000Y-111473122D01*
X102919581Y-111473122D01*
X102948336Y-112003440D01*
X103095958Y-112359831D01*
X103331725Y-112421669D01*
X104087395Y-111666000D01*
X104446605Y-111666000D01*
X105202275Y-112421669D01*
X105438042Y-112359831D01*
X105614419Y-111858878D01*
X105585664Y-111328560D01*
X105438042Y-110972169D01*
X105202275Y-110910331D01*
X104446605Y-111666000D01*
X104087395Y-111666000D01*
X103331725Y-110910331D01*
X103095958Y-110972169D01*
X102919581Y-111473122D01*
X55320000Y-111473122D01*
X55320000Y-110730725D01*
X103511331Y-110730725D01*
X104267000Y-111486395D01*
X105022669Y-110730725D01*
X104960831Y-110494958D01*
X104459878Y-110318581D01*
X103929560Y-110347336D01*
X103573169Y-110494958D01*
X103511331Y-110730725D01*
X55320000Y-110730725D01*
X55320000Y-107259968D01*
X67857000Y-107259968D01*
X67857000Y-107624032D01*
X67970039Y-108192317D01*
X68291946Y-108674086D01*
X68773715Y-108995993D01*
X69342000Y-109109032D01*
X69910285Y-108995993D01*
X70392054Y-108674086D01*
X70612000Y-108344913D01*
X70831946Y-108674086D01*
X71313715Y-108995993D01*
X71882000Y-109109032D01*
X72450285Y-108995993D01*
X72932054Y-108674086D01*
X73152000Y-108344913D01*
X73371946Y-108674086D01*
X73853715Y-108995993D01*
X74422000Y-109109032D01*
X74990285Y-108995993D01*
X75472054Y-108674086D01*
X75793961Y-108192317D01*
X75871651Y-107801742D01*
X90730716Y-107801742D01*
X90922976Y-108348812D01*
X91309955Y-108780664D01*
X91832740Y-109031553D01*
X91845110Y-109033476D01*
X92075000Y-108912155D01*
X92075000Y-107569000D01*
X90874769Y-107569000D01*
X90730716Y-107801742D01*
X75871651Y-107801742D01*
X75907000Y-107624032D01*
X75907000Y-107259968D01*
X75871652Y-107082258D01*
X90730716Y-107082258D01*
X90874769Y-107315000D01*
X92075000Y-107315000D01*
X92075000Y-105971845D01*
X92329000Y-105971845D01*
X92329000Y-107315000D01*
X92349000Y-107315000D01*
X92349000Y-107569000D01*
X92329000Y-107569000D01*
X92329000Y-108912155D01*
X92558890Y-109033476D01*
X92571260Y-109031553D01*
X93094045Y-108780664D01*
X93477347Y-108352915D01*
X93691946Y-108674086D01*
X94173715Y-108995993D01*
X94742000Y-109109032D01*
X95310285Y-108995993D01*
X95792054Y-108674086D01*
X96006653Y-108352915D01*
X96389955Y-108780664D01*
X96912740Y-109031553D01*
X96925110Y-109033476D01*
X97155000Y-108912155D01*
X97155000Y-107569000D01*
X97409000Y-107569000D01*
X97409000Y-108912155D01*
X97638890Y-109033476D01*
X97651260Y-109031553D01*
X98174045Y-108780664D01*
X98561024Y-108348812D01*
X98753284Y-107801742D01*
X98609231Y-107569000D01*
X97409000Y-107569000D01*
X97155000Y-107569000D01*
X97135000Y-107569000D01*
X97135000Y-107315000D01*
X97155000Y-107315000D01*
X97155000Y-105971845D01*
X97409000Y-105971845D01*
X97409000Y-107315000D01*
X98609231Y-107315000D01*
X98753284Y-107082258D01*
X98561024Y-106535188D01*
X98174045Y-106103336D01*
X97651260Y-105852447D01*
X97638890Y-105850524D01*
X97409000Y-105971845D01*
X97155000Y-105971845D01*
X96925110Y-105850524D01*
X96912740Y-105852447D01*
X96389955Y-106103336D01*
X96006653Y-106531085D01*
X95792054Y-106209914D01*
X95310285Y-105888007D01*
X94742000Y-105774968D01*
X94173715Y-105888007D01*
X93691946Y-106209914D01*
X93477347Y-106531085D01*
X93094045Y-106103336D01*
X92571260Y-105852447D01*
X92558890Y-105850524D01*
X92329000Y-105971845D01*
X92075000Y-105971845D01*
X91845110Y-105850524D01*
X91832740Y-105852447D01*
X91309955Y-106103336D01*
X90922976Y-106535188D01*
X90730716Y-107082258D01*
X75871652Y-107082258D01*
X75793961Y-106691683D01*
X75472054Y-106209914D01*
X74990285Y-105888007D01*
X74422000Y-105774968D01*
X73853715Y-105888007D01*
X73371946Y-106209914D01*
X73152000Y-106539087D01*
X72932054Y-106209914D01*
X72450285Y-105888007D01*
X71882000Y-105774968D01*
X71313715Y-105888007D01*
X70831946Y-106209914D01*
X70612000Y-106539087D01*
X70392054Y-106209914D01*
X69910285Y-105888007D01*
X69342000Y-105774968D01*
X68773715Y-105888007D01*
X68291946Y-106209914D01*
X67970039Y-106691683D01*
X67857000Y-107259968D01*
X55320000Y-107259968D01*
X55320000Y-85995510D01*
X60583070Y-85995510D01*
X60583070Y-87994490D01*
X60627348Y-88229807D01*
X60766420Y-88445931D01*
X60932473Y-88559390D01*
X60719928Y-88877486D01*
X60595510Y-89502978D01*
X60595510Y-89567022D01*
X60719928Y-90192514D01*
X61074241Y-90722781D01*
X61604508Y-91077094D01*
X62230000Y-91201512D01*
X62855492Y-91077094D01*
X63385759Y-90722781D01*
X63487844Y-90570000D01*
X65230288Y-90570000D01*
X67594142Y-92933853D01*
X67594144Y-92933856D01*
X67737348Y-93029541D01*
X67929923Y-93158215D01*
X68326000Y-93237001D01*
X68326005Y-93237000D01*
X74167995Y-93237000D01*
X74168000Y-93237001D01*
X74564077Y-93158215D01*
X74899856Y-92933856D01*
X79725853Y-88107858D01*
X79725856Y-88107856D01*
X79785193Y-88019051D01*
X80044054Y-87846086D01*
X80264000Y-87516913D01*
X80372000Y-87678547D01*
X80372000Y-88344289D01*
X75136288Y-93580000D01*
X68580005Y-93580000D01*
X68580000Y-93579999D01*
X68183923Y-93658785D01*
X67848144Y-93883144D01*
X67848142Y-93883147D01*
X66246288Y-95485000D01*
X63870248Y-95485000D01*
X63832652Y-95285193D01*
X63693580Y-95069069D01*
X63481380Y-94924079D01*
X63229490Y-94873070D01*
X61230510Y-94873070D01*
X60995193Y-94917348D01*
X60779069Y-95056420D01*
X60634079Y-95268620D01*
X60583070Y-95520510D01*
X60583070Y-97519490D01*
X60627348Y-97754807D01*
X60766420Y-97970931D01*
X60932473Y-98084390D01*
X60719928Y-98402486D01*
X60595510Y-99027978D01*
X60595510Y-99092022D01*
X60719928Y-99717514D01*
X61074241Y-100247781D01*
X61604508Y-100602094D01*
X62230000Y-100726512D01*
X62855492Y-100602094D01*
X63385759Y-100247781D01*
X63487844Y-100095000D01*
X67436995Y-100095000D01*
X67437000Y-100095001D01*
X67833077Y-100016215D01*
X68168856Y-99791856D01*
X68360962Y-99599750D01*
X69889000Y-99599750D01*
X69889000Y-100440310D01*
X69985673Y-100673699D01*
X70164302Y-100852327D01*
X70397691Y-100949000D01*
X71088250Y-100949000D01*
X71247000Y-100790250D01*
X71247000Y-99441000D01*
X71501000Y-99441000D01*
X71501000Y-100790250D01*
X71659750Y-100949000D01*
X72350309Y-100949000D01*
X72583698Y-100852327D01*
X72762327Y-100673699D01*
X72850359Y-100461171D01*
X73021955Y-100652664D01*
X73544740Y-100903553D01*
X73557110Y-100905476D01*
X73787000Y-100784155D01*
X73787000Y-99441000D01*
X74041000Y-99441000D01*
X74041000Y-100784155D01*
X74270890Y-100905476D01*
X74283260Y-100903553D01*
X74806045Y-100652664D01*
X75184000Y-100230882D01*
X75561955Y-100652664D01*
X76084740Y-100903553D01*
X76097110Y-100905476D01*
X76327000Y-100784155D01*
X76327000Y-99441000D01*
X76581000Y-99441000D01*
X76581000Y-100784155D01*
X76810890Y-100905476D01*
X76823260Y-100903553D01*
X77346045Y-100652664D01*
X77724000Y-100230882D01*
X78101955Y-100652664D01*
X78624740Y-100903553D01*
X78637110Y-100905476D01*
X78867000Y-100784155D01*
X78867000Y-99441000D01*
X76581000Y-99441000D01*
X76327000Y-99441000D01*
X74041000Y-99441000D01*
X73787000Y-99441000D01*
X71501000Y-99441000D01*
X71247000Y-99441000D01*
X70047750Y-99441000D01*
X69889000Y-99599750D01*
X68360962Y-99599750D01*
X69971010Y-97989702D01*
X69889000Y-98187690D01*
X69889000Y-99028250D01*
X70047750Y-99187000D01*
X71247000Y-99187000D01*
X71247000Y-99167000D01*
X71501000Y-99167000D01*
X71501000Y-99187000D01*
X73787000Y-99187000D01*
X73787000Y-99167000D01*
X74041000Y-99167000D01*
X74041000Y-99187000D01*
X76327000Y-99187000D01*
X76327000Y-99167000D01*
X76581000Y-99167000D01*
X76581000Y-99187000D01*
X78867000Y-99187000D01*
X78867000Y-97843845D01*
X78637110Y-97722524D01*
X78624740Y-97724447D01*
X78101955Y-97975336D01*
X77724000Y-98397118D01*
X77346045Y-97975336D01*
X76999446Y-97809000D01*
X77215995Y-97809000D01*
X77216000Y-97809001D01*
X77612077Y-97730215D01*
X77947856Y-97505856D01*
X84805853Y-90647858D01*
X84805856Y-90647856D01*
X85030215Y-90312077D01*
X85058476Y-90170000D01*
X85109001Y-89916000D01*
X85109000Y-89915995D01*
X85109000Y-87856145D01*
X85124054Y-87846086D01*
X85344000Y-87516913D01*
X85563946Y-87846086D01*
X86045715Y-88167993D01*
X86614000Y-88281032D01*
X87182285Y-88167993D01*
X87664054Y-87846086D01*
X87878653Y-87524915D01*
X88261955Y-87952664D01*
X88784740Y-88203553D01*
X88797110Y-88205476D01*
X89027000Y-88084155D01*
X89027000Y-86741000D01*
X89281000Y-86741000D01*
X89281000Y-88084155D01*
X89510890Y-88205476D01*
X89523260Y-88203553D01*
X90046045Y-87952664D01*
X90433024Y-87520812D01*
X90625284Y-86973742D01*
X90481231Y-86741000D01*
X89281000Y-86741000D01*
X89027000Y-86741000D01*
X89007000Y-86741000D01*
X89007000Y-86487000D01*
X89027000Y-86487000D01*
X89027000Y-85143845D01*
X89281000Y-85143845D01*
X89281000Y-86487000D01*
X90481231Y-86487000D01*
X90625284Y-86254258D01*
X90433024Y-85707188D01*
X90046045Y-85275336D01*
X89523260Y-85024447D01*
X89510890Y-85022524D01*
X89281000Y-85143845D01*
X89027000Y-85143845D01*
X88797110Y-85022524D01*
X88784740Y-85024447D01*
X88261955Y-85275336D01*
X87878653Y-85703085D01*
X87664054Y-85381914D01*
X87491351Y-85266517D01*
X88483868Y-84274000D01*
X89951132Y-84274000D01*
X91817465Y-86140333D01*
X91916883Y-86380943D01*
X92179673Y-86644192D01*
X92523201Y-86786838D01*
X92895167Y-86787162D01*
X93238943Y-86645117D01*
X93502192Y-86382327D01*
X93644838Y-86038799D01*
X93645162Y-85666833D01*
X93503117Y-85323057D01*
X93240327Y-85059808D01*
X92998090Y-84959222D01*
X90887434Y-82848566D01*
X90616541Y-82667561D01*
X90297000Y-82604000D01*
X88138000Y-82604000D01*
X87818459Y-82667561D01*
X87547566Y-82848566D01*
X86023566Y-84372566D01*
X85842561Y-84643459D01*
X85779000Y-84963000D01*
X85779000Y-85238220D01*
X85563946Y-85381914D01*
X85344000Y-85711087D01*
X85124054Y-85381914D01*
X84642285Y-85060007D01*
X84074000Y-84946968D01*
X83505715Y-85060007D01*
X83023946Y-85381914D01*
X82804000Y-85711087D01*
X82584054Y-85381914D01*
X82102285Y-85060007D01*
X81534000Y-84946968D01*
X80965715Y-85060007D01*
X80483946Y-85381914D01*
X80264000Y-85711087D01*
X80044054Y-85381914D01*
X79562285Y-85060007D01*
X78994000Y-84946968D01*
X78425715Y-85060007D01*
X77943946Y-85381914D01*
X77724000Y-85711087D01*
X77504054Y-85381914D01*
X77022285Y-85060007D01*
X76454000Y-84946968D01*
X75885715Y-85060007D01*
X75403946Y-85381914D01*
X75189347Y-85703085D01*
X74806045Y-85275336D01*
X74283260Y-85024447D01*
X74270890Y-85022524D01*
X74041000Y-85143845D01*
X74041000Y-86487000D01*
X74061000Y-86487000D01*
X74061000Y-86741000D01*
X74041000Y-86741000D01*
X74041000Y-88084155D01*
X74198837Y-88167451D01*
X73231288Y-89135000D01*
X69643711Y-89135000D01*
X66940680Y-86431968D01*
X69889000Y-86431968D01*
X69889000Y-86796032D01*
X70002039Y-87364317D01*
X70323946Y-87846086D01*
X70805715Y-88167993D01*
X71374000Y-88281032D01*
X71942285Y-88167993D01*
X72424054Y-87846086D01*
X72638653Y-87524915D01*
X73021955Y-87952664D01*
X73544740Y-88203553D01*
X73557110Y-88205476D01*
X73787000Y-88084155D01*
X73787000Y-86741000D01*
X73767000Y-86741000D01*
X73767000Y-86487000D01*
X73787000Y-86487000D01*
X73787000Y-85143845D01*
X73557110Y-85022524D01*
X73544740Y-85024447D01*
X73021955Y-85275336D01*
X72638653Y-85703085D01*
X72424054Y-85381914D01*
X71942285Y-85060007D01*
X71374000Y-84946968D01*
X70805715Y-85060007D01*
X70323946Y-85381914D01*
X70002039Y-85863683D01*
X69889000Y-86431968D01*
X66940680Y-86431968D01*
X66771856Y-86263144D01*
X66436077Y-86038785D01*
X66040000Y-85959999D01*
X66039995Y-85960000D01*
X63870248Y-85960000D01*
X63832652Y-85760193D01*
X63693580Y-85544069D01*
X63481380Y-85399079D01*
X63229490Y-85348070D01*
X61230510Y-85348070D01*
X60995193Y-85392348D01*
X60779069Y-85531420D01*
X60634079Y-85743620D01*
X60583070Y-85995510D01*
X55320000Y-85995510D01*
X55320000Y-80376000D01*
X69568560Y-80376000D01*
X69568560Y-81676000D01*
X69612838Y-81911317D01*
X69751910Y-82127441D01*
X69964110Y-82272431D01*
X70216000Y-82323440D01*
X71516000Y-82323440D01*
X71751317Y-82279162D01*
X71967441Y-82140090D01*
X72112431Y-81927890D01*
X72113012Y-81925016D01*
X75146590Y-81925016D01*
X75202271Y-82155611D01*
X75685078Y-82323622D01*
X76195428Y-82294083D01*
X76529729Y-82155611D01*
X76585410Y-81925016D01*
X75866000Y-81205605D01*
X75146590Y-81925016D01*
X72113012Y-81925016D01*
X72163440Y-81676000D01*
X72163440Y-80845078D01*
X74568378Y-80845078D01*
X74597917Y-81355428D01*
X74736389Y-81689729D01*
X74966984Y-81745410D01*
X75686395Y-81026000D01*
X76045605Y-81026000D01*
X76765016Y-81745410D01*
X76995611Y-81689729D01*
X77163622Y-81206922D01*
X77134083Y-80696572D01*
X76995611Y-80362271D01*
X76765016Y-80306590D01*
X76045605Y-81026000D01*
X75686395Y-81026000D01*
X74966984Y-80306590D01*
X74736389Y-80362271D01*
X74568378Y-80845078D01*
X72163440Y-80845078D01*
X72163440Y-80376000D01*
X72119162Y-80140683D01*
X72110347Y-80126984D01*
X75146590Y-80126984D01*
X75866000Y-80846395D01*
X76585410Y-80126984D01*
X76529729Y-79896389D01*
X76046922Y-79728378D01*
X75536572Y-79757917D01*
X75202271Y-79896389D01*
X75146590Y-80126984D01*
X72110347Y-80126984D01*
X71980090Y-79924559D01*
X71767890Y-79779569D01*
X71516000Y-79728560D01*
X70216000Y-79728560D01*
X69980683Y-79772838D01*
X69764559Y-79911910D01*
X69619569Y-80124110D01*
X69568560Y-80376000D01*
X55320000Y-80376000D01*
X55320000Y-61865510D01*
X60583070Y-61865510D01*
X60583070Y-63864490D01*
X60627348Y-64099807D01*
X60766420Y-64315931D01*
X60932473Y-64429390D01*
X60719928Y-64747486D01*
X60595510Y-65372978D01*
X60595510Y-65437022D01*
X60719928Y-66062514D01*
X61074241Y-66592781D01*
X61604508Y-66947094D01*
X62230000Y-67071512D01*
X62855492Y-66947094D01*
X63385759Y-66592781D01*
X63487844Y-66440000D01*
X63896788Y-66440000D01*
X65689142Y-68232353D01*
X65689144Y-68232356D01*
X65880259Y-68360054D01*
X66024923Y-68456715D01*
X66421000Y-68535501D01*
X66421005Y-68535500D01*
X68657927Y-68535500D01*
X68557429Y-68602651D01*
X68356144Y-68737144D01*
X68356142Y-68737147D01*
X65103288Y-71990000D01*
X63870248Y-71990000D01*
X63832652Y-71790193D01*
X63693580Y-71574069D01*
X63481380Y-71429079D01*
X63229490Y-71378070D01*
X61230510Y-71378070D01*
X60995193Y-71422348D01*
X60779069Y-71561420D01*
X60634079Y-71773620D01*
X60583070Y-72025510D01*
X60583070Y-74024490D01*
X60627348Y-74259807D01*
X60766420Y-74475931D01*
X60932473Y-74589390D01*
X60719928Y-74907486D01*
X60595510Y-75532978D01*
X60595510Y-75597022D01*
X60719928Y-76222514D01*
X61074241Y-76752781D01*
X61604508Y-77107094D01*
X62230000Y-77231512D01*
X62855492Y-77107094D01*
X63385759Y-76752781D01*
X63487844Y-76600000D01*
X66420995Y-76600000D01*
X66421000Y-76600001D01*
X66817077Y-76521215D01*
X67152856Y-76296856D01*
X67725961Y-75723750D01*
X69635000Y-75723750D01*
X69635000Y-76564310D01*
X69731673Y-76797699D01*
X69910302Y-76976327D01*
X70143691Y-77073000D01*
X70834250Y-77073000D01*
X70993000Y-76914250D01*
X70993000Y-75565000D01*
X71247000Y-75565000D01*
X71247000Y-76914250D01*
X71405750Y-77073000D01*
X72096309Y-77073000D01*
X72329698Y-76976327D01*
X72508327Y-76797699D01*
X72596359Y-76585171D01*
X72767955Y-76776664D01*
X73290740Y-77027553D01*
X73303110Y-77029476D01*
X73533000Y-76908155D01*
X73533000Y-75565000D01*
X73787000Y-75565000D01*
X73787000Y-76908155D01*
X74016890Y-77029476D01*
X74029260Y-77027553D01*
X74552045Y-76776664D01*
X74930000Y-76354882D01*
X75307955Y-76776664D01*
X75830740Y-77027553D01*
X75843110Y-77029476D01*
X76073000Y-76908155D01*
X76073000Y-75565000D01*
X76327000Y-75565000D01*
X76327000Y-76908155D01*
X76556890Y-77029476D01*
X76569260Y-77027553D01*
X77092045Y-76776664D01*
X77470000Y-76354882D01*
X77847955Y-76776664D01*
X78370740Y-77027553D01*
X78383110Y-77029476D01*
X78613000Y-76908155D01*
X78613000Y-75565000D01*
X76327000Y-75565000D01*
X76073000Y-75565000D01*
X73787000Y-75565000D01*
X73533000Y-75565000D01*
X71247000Y-75565000D01*
X70993000Y-75565000D01*
X69793750Y-75565000D01*
X69635000Y-75723750D01*
X67725961Y-75723750D01*
X69138021Y-74311690D01*
X69635000Y-74311690D01*
X69635000Y-75152250D01*
X69793750Y-75311000D01*
X70993000Y-75311000D01*
X70993000Y-73961750D01*
X71247000Y-73961750D01*
X71247000Y-75311000D01*
X73533000Y-75311000D01*
X73533000Y-73967845D01*
X73787000Y-73967845D01*
X73787000Y-75311000D01*
X76073000Y-75311000D01*
X76073000Y-73967845D01*
X76327000Y-73967845D01*
X76327000Y-75311000D01*
X78613000Y-75311000D01*
X78613000Y-73967845D01*
X78383110Y-73846524D01*
X78370740Y-73848447D01*
X77847955Y-74099336D01*
X77470000Y-74521118D01*
X77092045Y-74099336D01*
X76569260Y-73848447D01*
X76556890Y-73846524D01*
X76327000Y-73967845D01*
X76073000Y-73967845D01*
X75843110Y-73846524D01*
X75830740Y-73848447D01*
X75307955Y-74099336D01*
X74930000Y-74521118D01*
X74552045Y-74099336D01*
X74029260Y-73848447D01*
X74016890Y-73846524D01*
X73787000Y-73967845D01*
X73533000Y-73967845D01*
X73303110Y-73846524D01*
X73290740Y-73848447D01*
X72767955Y-74099336D01*
X72596359Y-74290829D01*
X72508327Y-74078301D01*
X72329698Y-73899673D01*
X72096309Y-73803000D01*
X71405750Y-73803000D01*
X71247000Y-73961750D01*
X70993000Y-73961750D01*
X70834250Y-73803000D01*
X70143691Y-73803000D01*
X69910302Y-73899673D01*
X69731673Y-74078301D01*
X69635000Y-74311690D01*
X69138021Y-74311690D01*
X70278711Y-73171000D01*
X78485995Y-73171000D01*
X78486000Y-73171001D01*
X78882077Y-73092215D01*
X79217856Y-72867856D01*
X84551853Y-67533858D01*
X84551856Y-67533856D01*
X84776215Y-67198077D01*
X84794844Y-67104423D01*
X84855001Y-66802000D01*
X84855000Y-66801995D01*
X84855000Y-66406000D01*
X94968560Y-66406000D01*
X94968560Y-67706000D01*
X95012838Y-67941317D01*
X95151910Y-68157441D01*
X95364110Y-68302431D01*
X95616000Y-68353440D01*
X96916000Y-68353440D01*
X97151317Y-68309162D01*
X97367441Y-68170090D01*
X97512431Y-67957890D01*
X97513012Y-67955016D01*
X100546590Y-67955016D01*
X100602271Y-68185611D01*
X101085078Y-68353622D01*
X101595428Y-68324083D01*
X101929729Y-68185611D01*
X101985410Y-67955016D01*
X101266000Y-67235605D01*
X100546590Y-67955016D01*
X97513012Y-67955016D01*
X97563440Y-67706000D01*
X97563440Y-66875078D01*
X99968378Y-66875078D01*
X99997917Y-67385428D01*
X100136389Y-67719729D01*
X100366984Y-67775410D01*
X101086395Y-67056000D01*
X101445605Y-67056000D01*
X102165016Y-67775410D01*
X102395611Y-67719729D01*
X102563622Y-67236922D01*
X102534083Y-66726572D01*
X102395611Y-66392271D01*
X102165016Y-66336590D01*
X101445605Y-67056000D01*
X101086395Y-67056000D01*
X100366984Y-66336590D01*
X100136389Y-66392271D01*
X99968378Y-66875078D01*
X97563440Y-66875078D01*
X97563440Y-66406000D01*
X97519162Y-66170683D01*
X97510347Y-66156984D01*
X100546590Y-66156984D01*
X101266000Y-66876395D01*
X101985410Y-66156984D01*
X101929729Y-65926389D01*
X101446922Y-65758378D01*
X100936572Y-65787917D01*
X100602271Y-65926389D01*
X100546590Y-66156984D01*
X97510347Y-66156984D01*
X97380090Y-65954559D01*
X97167890Y-65809569D01*
X96916000Y-65758560D01*
X95616000Y-65758560D01*
X95380683Y-65802838D01*
X95164559Y-65941910D01*
X95019569Y-66154110D01*
X94968560Y-66406000D01*
X84855000Y-66406000D01*
X84855000Y-63980145D01*
X84870054Y-63970086D01*
X85090000Y-63640913D01*
X85309946Y-63970086D01*
X85791715Y-64291993D01*
X86360000Y-64405032D01*
X86928285Y-64291993D01*
X87410054Y-63970086D01*
X87624653Y-63648915D01*
X88007955Y-64076664D01*
X88530740Y-64327553D01*
X88543110Y-64329476D01*
X88773000Y-64208155D01*
X88773000Y-62865000D01*
X89027000Y-62865000D01*
X89027000Y-64208155D01*
X89256890Y-64329476D01*
X89269260Y-64327553D01*
X89792045Y-64076664D01*
X90179024Y-63644812D01*
X90371284Y-63097742D01*
X90227231Y-62865000D01*
X89027000Y-62865000D01*
X88773000Y-62865000D01*
X88753000Y-62865000D01*
X88753000Y-62611000D01*
X88773000Y-62611000D01*
X88773000Y-61267845D01*
X89027000Y-61267845D01*
X89027000Y-62611000D01*
X90227231Y-62611000D01*
X90371284Y-62378258D01*
X90179024Y-61831188D01*
X89792045Y-61399336D01*
X89269260Y-61148447D01*
X89256890Y-61146524D01*
X89027000Y-61267845D01*
X88773000Y-61267845D01*
X88543110Y-61146524D01*
X88530740Y-61148447D01*
X88007955Y-61399336D01*
X87624653Y-61827085D01*
X87410054Y-61505914D01*
X87195000Y-61362220D01*
X87195000Y-60035868D01*
X89245868Y-57985000D01*
X110144132Y-57985000D01*
X111502465Y-59343333D01*
X111601883Y-59583943D01*
X111864673Y-59847192D01*
X112208201Y-59989838D01*
X112438094Y-59990038D01*
X110454948Y-61973184D01*
X110392993Y-61661715D01*
X110071086Y-61179946D01*
X110028841Y-61151719D01*
X110074317Y-61143162D01*
X110290441Y-61004090D01*
X110435431Y-60791890D01*
X110486440Y-60540000D01*
X110486440Y-58840000D01*
X110442162Y-58604683D01*
X110303090Y-58388559D01*
X110090890Y-58243569D01*
X109839000Y-58192560D01*
X107839000Y-58192560D01*
X107603683Y-58236838D01*
X107387559Y-58375910D01*
X107242569Y-58588110D01*
X107191560Y-58840000D01*
X107191560Y-60540000D01*
X107235838Y-60775317D01*
X107374910Y-60991441D01*
X107587110Y-61136431D01*
X107652286Y-61149629D01*
X107606914Y-61179946D01*
X107285007Y-61661715D01*
X107171968Y-62230000D01*
X107285007Y-62798285D01*
X107606914Y-63280054D01*
X107936087Y-63500000D01*
X107606914Y-63719946D01*
X107285007Y-64201715D01*
X107171968Y-64770000D01*
X107285007Y-65338285D01*
X107606914Y-65820054D01*
X107936087Y-66040000D01*
X107606914Y-66259946D01*
X107285007Y-66741715D01*
X107171968Y-67310000D01*
X107285007Y-67878285D01*
X107606914Y-68360054D01*
X107936087Y-68580000D01*
X107606914Y-68799946D01*
X107285007Y-69281715D01*
X107171968Y-69850000D01*
X107285007Y-70418285D01*
X107606914Y-70900054D01*
X107928085Y-71114653D01*
X107500336Y-71497955D01*
X107249447Y-72020740D01*
X107247524Y-72033110D01*
X107368845Y-72263000D01*
X108712000Y-72263000D01*
X108712000Y-72243000D01*
X108966000Y-72243000D01*
X108966000Y-72263000D01*
X110309155Y-72263000D01*
X110430476Y-72033110D01*
X110428553Y-72020740D01*
X110177664Y-71497955D01*
X109749915Y-71114653D01*
X110071086Y-70900054D01*
X110392993Y-70418285D01*
X110506032Y-69850000D01*
X110392993Y-69281715D01*
X110071086Y-68799946D01*
X109741913Y-68580000D01*
X110071086Y-68360054D01*
X110392993Y-67878285D01*
X110506032Y-67310000D01*
X110425372Y-66904496D01*
X111460148Y-65869720D01*
X111459838Y-66225167D01*
X111560000Y-66467578D01*
X111560000Y-94904132D01*
X109863134Y-96600998D01*
X109741913Y-96520000D01*
X110071086Y-96300054D01*
X110392993Y-95818285D01*
X110506032Y-95250000D01*
X110392993Y-94681715D01*
X110071086Y-94199946D01*
X109741913Y-93980000D01*
X110071086Y-93760054D01*
X110392993Y-93278285D01*
X110506032Y-92710000D01*
X110392993Y-92141715D01*
X110071086Y-91659946D01*
X109741913Y-91440000D01*
X110071086Y-91220054D01*
X110392993Y-90738285D01*
X110506032Y-90170000D01*
X110392993Y-89601715D01*
X110071086Y-89119946D01*
X109741913Y-88900000D01*
X110071086Y-88680054D01*
X110392993Y-88198285D01*
X110506032Y-87630000D01*
X110392993Y-87061715D01*
X110071086Y-86579946D01*
X109741913Y-86360000D01*
X110071086Y-86140054D01*
X110392993Y-85658285D01*
X110506032Y-85090000D01*
X110392993Y-84521715D01*
X110071086Y-84039946D01*
X109741913Y-83820000D01*
X110071086Y-83600054D01*
X110392993Y-83118285D01*
X110506032Y-82550000D01*
X110392993Y-81981715D01*
X110071086Y-81499946D01*
X109741913Y-81280000D01*
X110071086Y-81060054D01*
X110392993Y-80578285D01*
X110506032Y-80010000D01*
X110392993Y-79441715D01*
X110071086Y-78959946D01*
X109741913Y-78740000D01*
X110071086Y-78520054D01*
X110392993Y-78038285D01*
X110506032Y-77470000D01*
X110392993Y-76901715D01*
X110071086Y-76419946D01*
X109741913Y-76200000D01*
X110071086Y-75980054D01*
X110392993Y-75498285D01*
X110506032Y-74930000D01*
X110392993Y-74361715D01*
X110071086Y-73879946D01*
X109749915Y-73665347D01*
X110177664Y-73282045D01*
X110428553Y-72759260D01*
X110430476Y-72746890D01*
X110309155Y-72517000D01*
X108966000Y-72517000D01*
X108966000Y-72537000D01*
X108712000Y-72537000D01*
X108712000Y-72517000D01*
X107368845Y-72517000D01*
X107247524Y-72746890D01*
X107249447Y-72759260D01*
X107500336Y-73282045D01*
X107928085Y-73665347D01*
X107606914Y-73879946D01*
X107463220Y-74095000D01*
X91150868Y-74095000D01*
X89490434Y-72434566D01*
X89423736Y-72390000D01*
X89219541Y-72253561D01*
X88900000Y-72190000D01*
X86995000Y-72190000D01*
X86675460Y-72253560D01*
X86404566Y-72434566D01*
X85769566Y-73069566D01*
X85588561Y-73340459D01*
X85525000Y-73660000D01*
X85525000Y-74062220D01*
X85309946Y-74205914D01*
X85090000Y-74535087D01*
X84870054Y-74205914D01*
X84388285Y-73884007D01*
X83820000Y-73770968D01*
X83251715Y-73884007D01*
X82769946Y-74205914D01*
X82550000Y-74535087D01*
X82330054Y-74205914D01*
X81848285Y-73884007D01*
X81280000Y-73770968D01*
X80711715Y-73884007D01*
X80229946Y-74205914D01*
X80015347Y-74527085D01*
X79632045Y-74099336D01*
X79109260Y-73848447D01*
X79096890Y-73846524D01*
X78867000Y-73967845D01*
X78867000Y-75311000D01*
X78887000Y-75311000D01*
X78887000Y-75565000D01*
X78867000Y-75565000D01*
X78867000Y-76908155D01*
X79096890Y-77029476D01*
X79109260Y-77027553D01*
X79632045Y-76776664D01*
X80015347Y-76348915D01*
X80229946Y-76670086D01*
X80445000Y-76813780D01*
X80445000Y-77470000D01*
X80508561Y-77789541D01*
X80674767Y-78038285D01*
X80689566Y-78060434D01*
X81959566Y-79330434D01*
X82230459Y-79511439D01*
X82550000Y-79575000D01*
X98079132Y-79575000D01*
X106724566Y-88220434D01*
X106995460Y-88401440D01*
X107315000Y-88465000D01*
X107463220Y-88465000D01*
X107606914Y-88680054D01*
X107936087Y-88900000D01*
X107606914Y-89119946D01*
X107463220Y-89335000D01*
X107406868Y-89335000D01*
X98189934Y-80118066D01*
X98091893Y-80052557D01*
X97919041Y-79937061D01*
X97599500Y-79873500D01*
X84434372Y-79873500D01*
X84350327Y-79789308D01*
X84006799Y-79646662D01*
X83634833Y-79646338D01*
X83291057Y-79788383D01*
X83027808Y-80051173D01*
X82885162Y-80394701D01*
X82884838Y-80766667D01*
X83026883Y-81110443D01*
X83289673Y-81373692D01*
X83633201Y-81516338D01*
X83811228Y-81516493D01*
X83947000Y-81543500D01*
X97253632Y-81543500D01*
X106470566Y-90760434D01*
X106741460Y-90941440D01*
X107061000Y-91005000D01*
X107463220Y-91005000D01*
X107606914Y-91220054D01*
X107936087Y-91440000D01*
X107606914Y-91659946D01*
X107463220Y-91875000D01*
X106680000Y-91875000D01*
X106360459Y-91938561D01*
X106101430Y-92111639D01*
X106089566Y-92119566D01*
X102270132Y-95939000D01*
X91486234Y-95939000D01*
X91245799Y-95839162D01*
X90873833Y-95838838D01*
X90530057Y-95980883D01*
X90266808Y-96243673D01*
X90124162Y-96587201D01*
X90123838Y-96959167D01*
X90265883Y-97302943D01*
X90528673Y-97566192D01*
X90872201Y-97708838D01*
X91244167Y-97709162D01*
X91486578Y-97609000D01*
X102616000Y-97609000D01*
X102935541Y-97545439D01*
X103206434Y-97364434D01*
X107025868Y-93545000D01*
X107463220Y-93545000D01*
X107606914Y-93760054D01*
X107936087Y-93980000D01*
X107606914Y-94199946D01*
X107463220Y-94415000D01*
X106680000Y-94415000D01*
X106360459Y-94478561D01*
X106208404Y-94580161D01*
X106089566Y-94659566D01*
X99095132Y-101654000D01*
X85562868Y-101654000D01*
X84909000Y-101000132D01*
X84909000Y-100689780D01*
X85124054Y-100546086D01*
X85344000Y-100216913D01*
X85563946Y-100546086D01*
X86045715Y-100867993D01*
X86614000Y-100981032D01*
X87182285Y-100867993D01*
X87664054Y-100546086D01*
X87884000Y-100216913D01*
X88103946Y-100546086D01*
X88585715Y-100867993D01*
X89154000Y-100981032D01*
X89722285Y-100867993D01*
X90204054Y-100546086D01*
X90525961Y-100064317D01*
X90639000Y-99496032D01*
X90639000Y-99131968D01*
X90525961Y-98563683D01*
X90204054Y-98081914D01*
X89989000Y-97938220D01*
X89989000Y-95468868D01*
X93651868Y-91806000D01*
X94968560Y-91806000D01*
X94968560Y-93106000D01*
X95012838Y-93341317D01*
X95151910Y-93557441D01*
X95364110Y-93702431D01*
X95616000Y-93753440D01*
X96916000Y-93753440D01*
X97151317Y-93709162D01*
X97367441Y-93570090D01*
X97512431Y-93357890D01*
X97513012Y-93355016D01*
X100546590Y-93355016D01*
X100602271Y-93585611D01*
X101085078Y-93753622D01*
X101595428Y-93724083D01*
X101929729Y-93585611D01*
X101985410Y-93355016D01*
X101266000Y-92635605D01*
X100546590Y-93355016D01*
X97513012Y-93355016D01*
X97563440Y-93106000D01*
X97563440Y-92275078D01*
X99968378Y-92275078D01*
X99997917Y-92785428D01*
X100136389Y-93119729D01*
X100366984Y-93175410D01*
X101086395Y-92456000D01*
X101445605Y-92456000D01*
X102165016Y-93175410D01*
X102395611Y-93119729D01*
X102563622Y-92636922D01*
X102534083Y-92126572D01*
X102395611Y-91792271D01*
X102165016Y-91736590D01*
X101445605Y-92456000D01*
X101086395Y-92456000D01*
X100366984Y-91736590D01*
X100136389Y-91792271D01*
X99968378Y-92275078D01*
X97563440Y-92275078D01*
X97563440Y-91806000D01*
X97519162Y-91570683D01*
X97510347Y-91556984D01*
X100546590Y-91556984D01*
X101266000Y-92276395D01*
X101985410Y-91556984D01*
X101929729Y-91326389D01*
X101446922Y-91158378D01*
X100936572Y-91187917D01*
X100602271Y-91326389D01*
X100546590Y-91556984D01*
X97510347Y-91556984D01*
X97380090Y-91354559D01*
X97167890Y-91209569D01*
X96916000Y-91158560D01*
X95616000Y-91158560D01*
X95380683Y-91202838D01*
X95164559Y-91341910D01*
X95019569Y-91554110D01*
X94968560Y-91806000D01*
X93651868Y-91806000D01*
X96611868Y-88846000D01*
X101346000Y-88846000D01*
X101665541Y-88782439D01*
X101825739Y-88675398D01*
X102128943Y-88550117D01*
X102392192Y-88287327D01*
X102534838Y-87943799D01*
X102535162Y-87571833D01*
X102393117Y-87228057D01*
X102130327Y-86964808D01*
X101786799Y-86822162D01*
X101414833Y-86821838D01*
X101071057Y-86963883D01*
X100858570Y-87176000D01*
X96266000Y-87176000D01*
X95946459Y-87239561D01*
X95827262Y-87319206D01*
X96408668Y-86737800D01*
X98327966Y-86737800D01*
X98568401Y-86837638D01*
X98940367Y-86837962D01*
X99284143Y-86695917D01*
X99547392Y-86433127D01*
X99690038Y-86089599D01*
X99690362Y-85717633D01*
X99548317Y-85373857D01*
X99285527Y-85110608D01*
X98941999Y-84967962D01*
X98570033Y-84967638D01*
X98327622Y-85067800D01*
X96062800Y-85067800D01*
X95743259Y-85131361D01*
X95548394Y-85261566D01*
X95472366Y-85312366D01*
X86023566Y-94761166D01*
X85842561Y-95032059D01*
X85779000Y-95351600D01*
X85779000Y-97938220D01*
X85563946Y-98081914D01*
X85344000Y-98411087D01*
X85124054Y-98081914D01*
X84642285Y-97760007D01*
X84074000Y-97646968D01*
X83505715Y-97760007D01*
X83023946Y-98081914D01*
X82804000Y-98411087D01*
X82584054Y-98081914D01*
X82369000Y-97938220D01*
X82369000Y-97754868D01*
X82895868Y-97228000D01*
X83773766Y-97228000D01*
X84014201Y-97327838D01*
X84386167Y-97328162D01*
X84729943Y-97186117D01*
X84993192Y-96923327D01*
X85135838Y-96579799D01*
X85136162Y-96207833D01*
X84994117Y-95864057D01*
X84731327Y-95600808D01*
X84387799Y-95458162D01*
X84015833Y-95457838D01*
X83773422Y-95558000D01*
X82550000Y-95558000D01*
X82230459Y-95621561D01*
X81981150Y-95788144D01*
X81959566Y-95802566D01*
X80943566Y-96818566D01*
X80762561Y-97089459D01*
X80699000Y-97409000D01*
X80699000Y-97938220D01*
X80483946Y-98081914D01*
X80269347Y-98403085D01*
X79886045Y-97975336D01*
X79363260Y-97724447D01*
X79350890Y-97722524D01*
X79121000Y-97843845D01*
X79121000Y-99187000D01*
X79141000Y-99187000D01*
X79141000Y-99441000D01*
X79121000Y-99441000D01*
X79121000Y-100784155D01*
X79350890Y-100905476D01*
X79363260Y-100903553D01*
X79886045Y-100652664D01*
X80269347Y-100224915D01*
X80483946Y-100546086D01*
X80965715Y-100867993D01*
X81534000Y-100981032D01*
X82102285Y-100867993D01*
X82584054Y-100546086D01*
X82804000Y-100216913D01*
X83023946Y-100546086D01*
X83239000Y-100689780D01*
X83239000Y-101346000D01*
X83302561Y-101665541D01*
X83447813Y-101882926D01*
X83483566Y-101936434D01*
X84626566Y-103079434D01*
X84897459Y-103260439D01*
X85217000Y-103324000D01*
X91949758Y-103324000D01*
X91790808Y-103482673D01*
X91648162Y-103826201D01*
X91647838Y-104198167D01*
X91789883Y-104541943D01*
X92052673Y-104805192D01*
X92396201Y-104947838D01*
X92768167Y-104948162D01*
X93010578Y-104848000D01*
X103124000Y-104848000D01*
X103443541Y-104784439D01*
X103714434Y-104603434D01*
X107152868Y-101165000D01*
X107463220Y-101165000D01*
X107606914Y-101380054D01*
X108088683Y-101701961D01*
X108656968Y-101815000D01*
X109021032Y-101815000D01*
X109589317Y-101701961D01*
X110071086Y-101380054D01*
X110392993Y-100898285D01*
X110506032Y-100330000D01*
X110392993Y-99761715D01*
X110071086Y-99279946D01*
X109741913Y-99060000D01*
X110071086Y-98840054D01*
X110323960Y-98461600D01*
X110445434Y-98380434D01*
X112985434Y-95840434D01*
X113053210Y-95739000D01*
X113166439Y-95569541D01*
X113230000Y-95250000D01*
X113230000Y-69850000D01*
X122411968Y-69850000D01*
X122525007Y-70418285D01*
X122846914Y-70900054D01*
X123176087Y-71120000D01*
X122846914Y-71339946D01*
X122525007Y-71821715D01*
X122411968Y-72390000D01*
X122525007Y-72958285D01*
X122846914Y-73440054D01*
X123176087Y-73660000D01*
X122846914Y-73879946D01*
X122525007Y-74361715D01*
X122411968Y-74930000D01*
X122525007Y-75498285D01*
X122846914Y-75980054D01*
X123176087Y-76200000D01*
X122846914Y-76419946D01*
X122525007Y-76901715D01*
X122411968Y-77470000D01*
X122525007Y-78038285D01*
X122846914Y-78520054D01*
X123176087Y-78740000D01*
X122846914Y-78959946D01*
X122525007Y-79441715D01*
X122411968Y-80010000D01*
X122525007Y-80578285D01*
X122846914Y-81060054D01*
X123176087Y-81280000D01*
X122846914Y-81499946D01*
X122525007Y-81981715D01*
X122411968Y-82550000D01*
X122525007Y-83118285D01*
X122846914Y-83600054D01*
X123176087Y-83820000D01*
X122846914Y-84039946D01*
X122525007Y-84521715D01*
X122411968Y-85090000D01*
X122525007Y-85658285D01*
X122846914Y-86140054D01*
X123176087Y-86360000D01*
X122846914Y-86579946D01*
X122525007Y-87061715D01*
X122411968Y-87630000D01*
X122525007Y-88198285D01*
X122846914Y-88680054D01*
X123176087Y-88900000D01*
X122846914Y-89119946D01*
X122525007Y-89601715D01*
X122411968Y-90170000D01*
X122525007Y-90738285D01*
X122846914Y-91220054D01*
X123176087Y-91440000D01*
X122846914Y-91659946D01*
X122525007Y-92141715D01*
X122411968Y-92710000D01*
X122525007Y-93278285D01*
X122846914Y-93760054D01*
X123176087Y-93980000D01*
X122846914Y-94199946D01*
X122525007Y-94681715D01*
X122411968Y-95250000D01*
X122525007Y-95818285D01*
X122846914Y-96300054D01*
X123176087Y-96520000D01*
X122846914Y-96739946D01*
X122525007Y-97221715D01*
X122411968Y-97790000D01*
X122525007Y-98358285D01*
X122846914Y-98840054D01*
X123176087Y-99060000D01*
X122846914Y-99279946D01*
X122525007Y-99761715D01*
X122411968Y-100330000D01*
X122525007Y-100898285D01*
X122846914Y-101380054D01*
X123328683Y-101701961D01*
X123896968Y-101815000D01*
X124261032Y-101815000D01*
X124829317Y-101701961D01*
X125311086Y-101380054D01*
X125632993Y-100898285D01*
X125697812Y-100572414D01*
X128845026Y-100572414D01*
X129093338Y-101173375D01*
X129552727Y-101633566D01*
X130153253Y-101882926D01*
X130803494Y-101883494D01*
X131404455Y-101635182D01*
X131618807Y-101421203D01*
X134061463Y-101421203D01*
X134160062Y-101688005D01*
X134769602Y-101914441D01*
X135419397Y-101890381D01*
X135907978Y-101688005D01*
X136006577Y-101421203D01*
X135034020Y-100448645D01*
X134061463Y-101421203D01*
X131618807Y-101421203D01*
X131864646Y-101175793D01*
X132114006Y-100575267D01*
X132114504Y-100004622D01*
X133388619Y-100004622D01*
X133412679Y-100654417D01*
X133615055Y-101142998D01*
X133881857Y-101241597D01*
X134854415Y-100269040D01*
X135213625Y-100269040D01*
X136186183Y-101241597D01*
X136452985Y-101142998D01*
X136679421Y-100533458D01*
X136655361Y-99883663D01*
X136452985Y-99395082D01*
X136186183Y-99296483D01*
X135213625Y-100269040D01*
X134854415Y-100269040D01*
X133881857Y-99296483D01*
X133615055Y-99395082D01*
X133388619Y-100004622D01*
X132114504Y-100004622D01*
X132114574Y-99925026D01*
X131866262Y-99324065D01*
X131659436Y-99116877D01*
X134061463Y-99116877D01*
X135034020Y-100089435D01*
X136006577Y-99116877D01*
X135907978Y-98850075D01*
X135298438Y-98623639D01*
X134648643Y-98647699D01*
X134160062Y-98850075D01*
X134061463Y-99116877D01*
X131659436Y-99116877D01*
X131406873Y-98863874D01*
X130806347Y-98614514D01*
X130156106Y-98613946D01*
X129555145Y-98862258D01*
X129094954Y-99321647D01*
X128845594Y-99922173D01*
X128845026Y-100572414D01*
X125697812Y-100572414D01*
X125746032Y-100330000D01*
X125632993Y-99761715D01*
X125311086Y-99279946D01*
X124981913Y-99060000D01*
X125311086Y-98840054D01*
X125632993Y-98358285D01*
X125746032Y-97790000D01*
X125632993Y-97221715D01*
X125311086Y-96739946D01*
X124981913Y-96520000D01*
X125311086Y-96300054D01*
X125632993Y-95818285D01*
X125746032Y-95250000D01*
X125632993Y-94681715D01*
X125311086Y-94199946D01*
X124981913Y-93980000D01*
X125311086Y-93760054D01*
X125454780Y-93545000D01*
X129089878Y-93545000D01*
X129093338Y-93553375D01*
X129552727Y-94013566D01*
X130153253Y-94262926D01*
X130803494Y-94263494D01*
X131404455Y-94015182D01*
X131864646Y-93555793D01*
X131902878Y-93463720D01*
X133602117Y-93463720D01*
X133647558Y-93573695D01*
X134106947Y-94033886D01*
X134707473Y-94283246D01*
X135357714Y-94283814D01*
X135744454Y-94124016D01*
X140758590Y-94124016D01*
X140814271Y-94354611D01*
X141297078Y-94522622D01*
X141807428Y-94493083D01*
X142141729Y-94354611D01*
X142197410Y-94124016D01*
X141478000Y-93404605D01*
X140758590Y-94124016D01*
X135744454Y-94124016D01*
X135958675Y-94035502D01*
X136418866Y-93576113D01*
X136639786Y-93044078D01*
X140180378Y-93044078D01*
X140209917Y-93554428D01*
X140348389Y-93888729D01*
X140578984Y-93944410D01*
X141298395Y-93225000D01*
X141657605Y-93225000D01*
X142377016Y-93944410D01*
X142607611Y-93888729D01*
X142775622Y-93405922D01*
X142746083Y-92895572D01*
X142607611Y-92561271D01*
X142377016Y-92505590D01*
X141657605Y-93225000D01*
X141298395Y-93225000D01*
X140578984Y-92505590D01*
X140348389Y-92561271D01*
X140180378Y-93044078D01*
X136639786Y-93044078D01*
X136668226Y-92975587D01*
X136668793Y-92325984D01*
X140758590Y-92325984D01*
X141478000Y-93045395D01*
X142197410Y-92325984D01*
X142141729Y-92095389D01*
X141658922Y-91927378D01*
X141148572Y-91956917D01*
X140814271Y-92095389D01*
X140758590Y-92325984D01*
X136668793Y-92325984D01*
X136668794Y-92325346D01*
X136420482Y-91724385D01*
X135961093Y-91264194D01*
X135360567Y-91014834D01*
X134710326Y-91014266D01*
X134109365Y-91262578D01*
X133649174Y-91721967D01*
X133619380Y-91793720D01*
X131903307Y-91793720D01*
X131866262Y-91704065D01*
X131406873Y-91243874D01*
X130806347Y-90994514D01*
X130156106Y-90993946D01*
X129555145Y-91242258D01*
X129094954Y-91701647D01*
X129022972Y-91875000D01*
X125454780Y-91875000D01*
X125311086Y-91659946D01*
X124981913Y-91440000D01*
X125311086Y-91220054D01*
X125632993Y-90738285D01*
X125746032Y-90170000D01*
X125632993Y-89601715D01*
X125311086Y-89119946D01*
X124981913Y-88900000D01*
X125311086Y-88680054D01*
X125632993Y-88198285D01*
X125746032Y-87630000D01*
X125632993Y-87061715D01*
X125311086Y-86579946D01*
X124981913Y-86360000D01*
X125311086Y-86140054D01*
X125632993Y-85658285D01*
X125746032Y-85090000D01*
X125743049Y-85075000D01*
X140180560Y-85075000D01*
X140180560Y-86375000D01*
X140224838Y-86610317D01*
X140363910Y-86826441D01*
X140576110Y-86971431D01*
X140828000Y-87022440D01*
X142128000Y-87022440D01*
X142363317Y-86978162D01*
X142579441Y-86839090D01*
X142724431Y-86626890D01*
X142775440Y-86375000D01*
X142775440Y-85075000D01*
X142731162Y-84839683D01*
X142592090Y-84623559D01*
X142379890Y-84478569D01*
X142128000Y-84427560D01*
X140828000Y-84427560D01*
X140592683Y-84471838D01*
X140376559Y-84610910D01*
X140231569Y-84823110D01*
X140180560Y-85075000D01*
X125743049Y-85075000D01*
X125632993Y-84521715D01*
X125311086Y-84039946D01*
X124981913Y-83820000D01*
X125311086Y-83600054D01*
X125632993Y-83118285D01*
X125658676Y-82989167D01*
X140542838Y-82989167D01*
X140684883Y-83332943D01*
X140947673Y-83596192D01*
X141291201Y-83738838D01*
X141663167Y-83739162D01*
X142006943Y-83597117D01*
X142270192Y-83334327D01*
X142412838Y-82990799D01*
X142413162Y-82618833D01*
X142271117Y-82275057D01*
X142008327Y-82011808D01*
X141664799Y-81869162D01*
X141292833Y-81868838D01*
X140949057Y-82010883D01*
X140685808Y-82273673D01*
X140543162Y-82617201D01*
X140542838Y-82989167D01*
X125658676Y-82989167D01*
X125746032Y-82550000D01*
X125632993Y-81981715D01*
X125311086Y-81499946D01*
X124981913Y-81280000D01*
X125311086Y-81060054D01*
X125632993Y-80578285D01*
X125746032Y-80010000D01*
X125632993Y-79441715D01*
X125311086Y-78959946D01*
X124981913Y-78740000D01*
X125311086Y-78520054D01*
X125632993Y-78038285D01*
X125746032Y-77470000D01*
X125632993Y-76901715D01*
X125311086Y-76419946D01*
X124981913Y-76200000D01*
X125311086Y-75980054D01*
X125632993Y-75498285D01*
X125746032Y-74930000D01*
X125632993Y-74361715D01*
X125375268Y-73976000D01*
X131240560Y-73976000D01*
X131240560Y-75376000D01*
X131284838Y-75611317D01*
X131423910Y-75827441D01*
X131636110Y-75972431D01*
X131888000Y-76023440D01*
X133288000Y-76023440D01*
X133523317Y-75979162D01*
X133739441Y-75840090D01*
X133884431Y-75627890D01*
X133935440Y-75376000D01*
X133935440Y-73976000D01*
X133891162Y-73740683D01*
X133752090Y-73524559D01*
X133539890Y-73379569D01*
X133288000Y-73328560D01*
X131888000Y-73328560D01*
X131652683Y-73372838D01*
X131436559Y-73511910D01*
X131291569Y-73724110D01*
X131240560Y-73976000D01*
X125375268Y-73976000D01*
X125311086Y-73879946D01*
X124981913Y-73660000D01*
X125311086Y-73440054D01*
X125503557Y-73152000D01*
X139159655Y-73152000D01*
X139273729Y-73725489D01*
X139598585Y-74211670D01*
X139612913Y-74221243D01*
X139591683Y-74225238D01*
X139375559Y-74364310D01*
X139230569Y-74576510D01*
X139179560Y-74828400D01*
X139179560Y-76555600D01*
X139223838Y-76790917D01*
X139362910Y-77007041D01*
X139575110Y-77152031D01*
X139827000Y-77203040D01*
X141859000Y-77203040D01*
X142094317Y-77158762D01*
X142310441Y-77019690D01*
X142455431Y-76807490D01*
X142506440Y-76555600D01*
X142506440Y-74828400D01*
X142462162Y-74593083D01*
X142323090Y-74376959D01*
X142110890Y-74231969D01*
X142069561Y-74223600D01*
X142087415Y-74211670D01*
X142412271Y-73725489D01*
X142526345Y-73152000D01*
X142412271Y-72578511D01*
X142087415Y-72092330D01*
X141777931Y-71885539D01*
X142193732Y-71514036D01*
X142447709Y-70986791D01*
X142450358Y-70971026D01*
X142329217Y-70739000D01*
X140970000Y-70739000D01*
X140970000Y-70759000D01*
X140716000Y-70759000D01*
X140716000Y-70739000D01*
X139356783Y-70739000D01*
X139235642Y-70971026D01*
X139238291Y-70986791D01*
X139492268Y-71514036D01*
X139908069Y-71885539D01*
X139598585Y-72092330D01*
X139273729Y-72578511D01*
X139159655Y-73152000D01*
X125503557Y-73152000D01*
X125632993Y-72958285D01*
X125746032Y-72390000D01*
X125632993Y-71821715D01*
X125311086Y-71339946D01*
X124981913Y-71120000D01*
X125311086Y-70900054D01*
X125632993Y-70418285D01*
X125746032Y-69850000D01*
X125632993Y-69281715D01*
X125311086Y-68799946D01*
X124989915Y-68585347D01*
X125417664Y-68202045D01*
X125668553Y-67679260D01*
X125670476Y-67666890D01*
X125549155Y-67437000D01*
X124206000Y-67437000D01*
X124206000Y-67457000D01*
X123952000Y-67457000D01*
X123952000Y-67437000D01*
X122608845Y-67437000D01*
X122487524Y-67666890D01*
X122489447Y-67679260D01*
X122740336Y-68202045D01*
X123168085Y-68585347D01*
X122846914Y-68799946D01*
X122525007Y-69281715D01*
X122411968Y-69850000D01*
X113230000Y-69850000D01*
X113230000Y-66467234D01*
X113329838Y-66226799D01*
X113330162Y-65854833D01*
X113188117Y-65511057D01*
X112925327Y-65247808D01*
X112581799Y-65105162D01*
X112225017Y-65104851D01*
X118836868Y-58493000D01*
X123066835Y-58493000D01*
X122846914Y-58639946D01*
X122525007Y-59121715D01*
X122411968Y-59690000D01*
X122525007Y-60258285D01*
X122846914Y-60740054D01*
X123176087Y-60960000D01*
X122846914Y-61179946D01*
X122525007Y-61661715D01*
X122411968Y-62230000D01*
X122525007Y-62798285D01*
X122846914Y-63280054D01*
X123176087Y-63500000D01*
X122846914Y-63719946D01*
X122525007Y-64201715D01*
X122411968Y-64770000D01*
X122525007Y-65338285D01*
X122846914Y-65820054D01*
X123168085Y-66034653D01*
X122740336Y-66417955D01*
X122489447Y-66940740D01*
X122487524Y-66953110D01*
X122608845Y-67183000D01*
X123952000Y-67183000D01*
X123952000Y-67163000D01*
X124206000Y-67163000D01*
X124206000Y-67183000D01*
X125549155Y-67183000D01*
X125670476Y-66953110D01*
X125668553Y-66940740D01*
X125417664Y-66417955D01*
X124989915Y-66034653D01*
X125311086Y-65820054D01*
X125450587Y-65611275D01*
X131832331Y-65611275D01*
X131894169Y-65847042D01*
X132395122Y-66023419D01*
X132925440Y-65994664D01*
X133281831Y-65847042D01*
X133343669Y-65611275D01*
X132588000Y-64855605D01*
X131832331Y-65611275D01*
X125450587Y-65611275D01*
X125632993Y-65338285D01*
X125746032Y-64770000D01*
X125688969Y-64483122D01*
X131240581Y-64483122D01*
X131269336Y-65013440D01*
X131416958Y-65369831D01*
X131652725Y-65431669D01*
X132408395Y-64676000D01*
X132767605Y-64676000D01*
X133523275Y-65431669D01*
X133759042Y-65369831D01*
X133935419Y-64868878D01*
X133906664Y-64338560D01*
X133759042Y-63982169D01*
X133523275Y-63920331D01*
X132767605Y-64676000D01*
X132408395Y-64676000D01*
X131652725Y-63920331D01*
X131416958Y-63982169D01*
X131240581Y-64483122D01*
X125688969Y-64483122D01*
X125632993Y-64201715D01*
X125324971Y-63740725D01*
X131832331Y-63740725D01*
X132588000Y-64496395D01*
X133343669Y-63740725D01*
X133281831Y-63504958D01*
X132780878Y-63328581D01*
X132250560Y-63357336D01*
X131894169Y-63504958D01*
X131832331Y-63740725D01*
X125324971Y-63740725D01*
X125311086Y-63719946D01*
X124981913Y-63500000D01*
X125311086Y-63280054D01*
X125632993Y-62798285D01*
X125746032Y-62230000D01*
X125632993Y-61661715D01*
X125311086Y-61179946D01*
X124981913Y-60960000D01*
X125311086Y-60740054D01*
X125632993Y-60258285D01*
X125746032Y-59690000D01*
X125632993Y-59121715D01*
X125311086Y-58639946D01*
X125091165Y-58493000D01*
X129956132Y-58493000D01*
X139221951Y-67758819D01*
X139159655Y-68072000D01*
X139273729Y-68645489D01*
X139598585Y-69131670D01*
X139908069Y-69338461D01*
X139492268Y-69709964D01*
X139238291Y-70237209D01*
X139235642Y-70252974D01*
X139356783Y-70485000D01*
X140716000Y-70485000D01*
X140716000Y-70465000D01*
X140970000Y-70465000D01*
X140970000Y-70485000D01*
X142329217Y-70485000D01*
X142450358Y-70252974D01*
X142447709Y-70237209D01*
X142193732Y-69709964D01*
X141777931Y-69338461D01*
X142087415Y-69131670D01*
X142412271Y-68645489D01*
X142526345Y-68072000D01*
X142412271Y-67498511D01*
X142087415Y-67012330D01*
X141772634Y-66802000D01*
X142087415Y-66591670D01*
X142412271Y-66105489D01*
X142526345Y-65532000D01*
X142412271Y-64958511D01*
X142087415Y-64472330D01*
X141772634Y-64262000D01*
X142087415Y-64051670D01*
X142412271Y-63565489D01*
X142526345Y-62992000D01*
X142412271Y-62418511D01*
X142087415Y-61932330D01*
X141601234Y-61607474D01*
X141027745Y-61493400D01*
X140658255Y-61493400D01*
X140084766Y-61607474D01*
X139598585Y-61932330D01*
X139273729Y-62418511D01*
X139192375Y-62827507D01*
X134535232Y-58170364D01*
X136614414Y-58170364D01*
X137128663Y-59414943D01*
X138080048Y-60367990D01*
X139323728Y-60884411D01*
X140670364Y-60885586D01*
X141914943Y-60371337D01*
X142867990Y-59419952D01*
X143384411Y-58176272D01*
X143385586Y-56829636D01*
X142871337Y-55585057D01*
X141919952Y-54632010D01*
X140676272Y-54115589D01*
X139329636Y-54114414D01*
X138085057Y-54628663D01*
X137132010Y-55580048D01*
X136615589Y-56823728D01*
X136614414Y-58170364D01*
X134535232Y-58170364D01*
X132543434Y-56178566D01*
X132292179Y-56010683D01*
X132272541Y-55997561D01*
X131953000Y-55934000D01*
X116840000Y-55934000D01*
X116520460Y-55997560D01*
X116249566Y-56178566D01*
X113329963Y-59098169D01*
X113330162Y-58869833D01*
X113188117Y-58526057D01*
X112925327Y-58262808D01*
X112683090Y-58162222D01*
X111080434Y-56559566D01*
X110809541Y-56378561D01*
X110490000Y-56315000D01*
X88900000Y-56315000D01*
X88580459Y-56378561D01*
X88309566Y-56559566D01*
X85769566Y-59099566D01*
X85588561Y-59370459D01*
X85525000Y-59690000D01*
X85525000Y-61362220D01*
X85309946Y-61505914D01*
X85090000Y-61835087D01*
X84870054Y-61505914D01*
X84388285Y-61184007D01*
X83820000Y-61070968D01*
X83251715Y-61184007D01*
X82769946Y-61505914D01*
X82550000Y-61835087D01*
X82330054Y-61505914D01*
X81848285Y-61184007D01*
X81280000Y-61070968D01*
X80711715Y-61184007D01*
X80229946Y-61505914D01*
X80010000Y-61835087D01*
X79790054Y-61505914D01*
X79308285Y-61184007D01*
X78740000Y-61070968D01*
X78171715Y-61184007D01*
X77689946Y-61505914D01*
X77470000Y-61835087D01*
X77250054Y-61505914D01*
X76768285Y-61184007D01*
X76200000Y-61070968D01*
X75631715Y-61184007D01*
X75149946Y-61505914D01*
X74935347Y-61827085D01*
X74552045Y-61399336D01*
X74029260Y-61148447D01*
X74016890Y-61146524D01*
X73787000Y-61267845D01*
X73787000Y-62611000D01*
X73807000Y-62611000D01*
X73807000Y-62865000D01*
X73787000Y-62865000D01*
X73787000Y-64208155D01*
X74016890Y-64329476D01*
X74029260Y-64327553D01*
X74552045Y-64076664D01*
X74935347Y-63648915D01*
X75075748Y-63859041D01*
X74310788Y-64624000D01*
X67929211Y-64624000D01*
X65861180Y-62555968D01*
X69635000Y-62555968D01*
X69635000Y-62920032D01*
X69748039Y-63488317D01*
X70069946Y-63970086D01*
X70551715Y-64291993D01*
X71120000Y-64405032D01*
X71688285Y-64291993D01*
X72170054Y-63970086D01*
X72384653Y-63648915D01*
X72767955Y-64076664D01*
X73290740Y-64327553D01*
X73303110Y-64329476D01*
X73533000Y-64208155D01*
X73533000Y-62865000D01*
X73513000Y-62865000D01*
X73513000Y-62611000D01*
X73533000Y-62611000D01*
X73533000Y-61267845D01*
X73303110Y-61146524D01*
X73290740Y-61148447D01*
X72767955Y-61399336D01*
X72384653Y-61827085D01*
X72170054Y-61505914D01*
X71688285Y-61184007D01*
X71120000Y-61070968D01*
X70551715Y-61184007D01*
X70069946Y-61505914D01*
X69748039Y-61987683D01*
X69635000Y-62555968D01*
X65861180Y-62555968D01*
X65438356Y-62133144D01*
X65102577Y-61908785D01*
X64706500Y-61829999D01*
X64706495Y-61830000D01*
X63870248Y-61830000D01*
X63832652Y-61630193D01*
X63693580Y-61414069D01*
X63481380Y-61269079D01*
X63229490Y-61218070D01*
X61230510Y-61218070D01*
X60995193Y-61262348D01*
X60779069Y-61401420D01*
X60634079Y-61613620D01*
X60583070Y-61865510D01*
X55320000Y-61865510D01*
X55320000Y-58170364D01*
X56614414Y-58170364D01*
X57128663Y-59414943D01*
X58080048Y-60367990D01*
X59323728Y-60884411D01*
X60670364Y-60885586D01*
X61914943Y-60371337D01*
X62867990Y-59419952D01*
X63384411Y-58176272D01*
X63385586Y-56829636D01*
X63144433Y-56246000D01*
X69568560Y-56246000D01*
X69568560Y-57546000D01*
X69612838Y-57781317D01*
X69751910Y-57997441D01*
X69964110Y-58142431D01*
X70216000Y-58193440D01*
X71516000Y-58193440D01*
X71751317Y-58149162D01*
X71967441Y-58010090D01*
X72112431Y-57797890D01*
X72113012Y-57795016D01*
X75146590Y-57795016D01*
X75202271Y-58025611D01*
X75685078Y-58193622D01*
X76195428Y-58164083D01*
X76529729Y-58025611D01*
X76585410Y-57795016D01*
X75866000Y-57075605D01*
X75146590Y-57795016D01*
X72113012Y-57795016D01*
X72163440Y-57546000D01*
X72163440Y-56715078D01*
X74568378Y-56715078D01*
X74597917Y-57225428D01*
X74736389Y-57559729D01*
X74966984Y-57615410D01*
X75686395Y-56896000D01*
X76045605Y-56896000D01*
X76765016Y-57615410D01*
X76995611Y-57559729D01*
X77163622Y-57076922D01*
X77134083Y-56566572D01*
X76995611Y-56232271D01*
X76765016Y-56176590D01*
X76045605Y-56896000D01*
X75686395Y-56896000D01*
X74966984Y-56176590D01*
X74736389Y-56232271D01*
X74568378Y-56715078D01*
X72163440Y-56715078D01*
X72163440Y-56246000D01*
X72119162Y-56010683D01*
X72110347Y-55996984D01*
X75146590Y-55996984D01*
X75866000Y-56716395D01*
X76585410Y-55996984D01*
X76529729Y-55766389D01*
X76046922Y-55598378D01*
X75536572Y-55627917D01*
X75202271Y-55766389D01*
X75146590Y-55996984D01*
X72110347Y-55996984D01*
X71980090Y-55794559D01*
X71767890Y-55649569D01*
X71516000Y-55598560D01*
X70216000Y-55598560D01*
X69980683Y-55642838D01*
X69764559Y-55781910D01*
X69619569Y-55994110D01*
X69568560Y-56246000D01*
X63144433Y-56246000D01*
X62871337Y-55585057D01*
X61919952Y-54632010D01*
X60676272Y-54115589D01*
X59329636Y-54114414D01*
X58085057Y-54628663D01*
X57132010Y-55580048D01*
X56615589Y-56823728D01*
X56614414Y-58170364D01*
X55320000Y-58170364D01*
X55320000Y-54050000D01*
X145340000Y-54050000D01*
X145340000Y-138990000D01*
M02*
